<svg width="141" height="28" viewBox="0 0 141 28" fill="none" xmlns="http://www.w3.org/2000/svg">
<path d="M12.1393 5.62428C12.3784 4.65583 13.7551 4.65583 13.9942 5.62428C15.0148 9.75814 18.2425 12.9858 22.3763 14.0063C23.3448 14.2453 23.3448 15.6221 22.3763 15.8612C18.2425 16.8817 15.0148 20.1093 13.9942 24.2432C13.7551 25.2116 12.3784 25.2116 12.1393 24.2432C11.1187 20.1093 7.891 16.8817 3.75713 15.8612C2.78865 15.6221 2.78865 14.2453 3.75713 14.0063C7.891 12.9858 11.1187 9.75814 12.1393 5.62428Z" fill="url(#sparkle-grad)"/>
<path d="M22.3354 1.5206C22.4322 1.12861 22.9894 1.12861 23.0862 1.5206C23.4993 3.19383 24.8057 4.50026 26.479 4.91331C26.871 5.01008 26.871 5.56735 26.479 5.66412C24.8057 6.07717 23.4993 7.3836 23.0862 9.05683C22.9894 9.44882 22.4322 9.44882 22.3354 9.05683C21.9223 7.3836 20.6159 6.07717 18.9426 5.66412C18.5506 5.56735 18.5506 5.01008 18.9426 4.91331C20.6159 4.50026 21.9223 3.19383 22.3354 1.5206Z" fill="url(#sparkle-grad)"/>
<path d="M35.4512 22L40.8223 6.44531H44.9688L50.3506 22H46.8809L42.96 9.95801H42.8311L38.8994 22H35.4512ZM47.0312 15.8877V18.4121H38.7275V15.8877H47.0312ZM55.335 22H52.1123V6.44531H55.335V22ZM69.042 19.8623H66.3242V14.373H69.042V19.8623ZM76.2393 19.8623H73.4785V14.373H76.2393V19.8623ZM80.2139 21.6885H62.3389V19.4434H80.2139V21.6885ZM71.2441 5.37109C72.6549 5.37109 73.9154 5.58952 75.0254 6.02637C76.1426 6.46322 77.0163 7.0791 77.6465 7.87402C78.2839 8.66895 78.6025 9.58203 78.6025 10.6133C78.6025 11.6517 78.2874 12.5684 77.6572 13.3633C77.027 14.151 76.1533 14.7633 75.0361 15.2002C73.9261 15.6299 72.6621 15.8483 71.2441 15.8555C69.8333 15.8483 68.5693 15.6299 67.4521 15.2002C66.3421 14.7633 65.472 14.151 64.8418 13.3633C64.2116 12.5684 63.8965 11.6517 63.8965 10.6133C63.8965 9.58203 64.2116 8.66895 64.8418 7.87402C65.472 7.0791 66.3457 6.46322 67.4629 6.02637C68.5801 5.58952 69.8405 5.37109 71.2441 5.37109ZM71.2441 7.54102C70.3132 7.53385 69.5003 7.65202 68.8057 7.89551C68.111 8.139 67.5703 8.49349 67.1836 8.95898C66.7969 9.41732 66.6035 9.96875 66.6035 10.6133C66.6035 11.2507 66.7969 11.8057 67.1836 12.2783C67.5703 12.7438 68.111 13.1055 68.8057 13.3633C69.5075 13.6139 70.3203 13.7393 71.2441 13.7393C72.1608 13.7393 72.9701 13.6139 73.6719 13.3633C74.3737 13.1055 74.918 12.7438 75.3047 12.2783C75.6986 11.8057 75.8955 11.2507 75.8955 10.6133C75.8955 9.96875 75.7021 9.41732 75.3154 8.95898C74.9287 8.50065 74.3844 8.14974 73.6826 7.90625C72.988 7.6556 72.1751 7.53385 71.2441 7.54102ZM99.3994 9.22754H96.0049V7.01465H99.3994V9.22754ZM99.3994 13.4922H96.0049V11.2148H99.3994V13.4922ZM96.8535 15.9521H94.1143V4.4043H96.8535V15.9521ZM96.8535 23.9766H94.1143V18.96H83.6943V16.7363H96.8535V23.9766ZM86.8311 5.5C87.8337 5.49284 88.7396 5.69336 89.5488 6.10156C90.3652 6.50977 91.0062 7.07552 91.4717 7.79883C91.9443 8.52214 92.1807 9.34212 92.1807 10.2588C92.1807 11.1683 91.9479 11.9919 91.4824 12.7295C91.0169 13.46 90.376 14.0329 89.5596 14.4482C88.7503 14.8564 87.8408 15.0605 86.8311 15.0605C85.8213 15.0605 84.9118 14.8564 84.1025 14.4482C83.2933 14.0329 82.6523 13.46 82.1797 12.7295C81.707 11.9919 81.4707 11.1683 81.4707 10.2588C81.4707 9.34212 81.707 8.52572 82.1797 7.80957C82.6523 7.08626 83.2969 6.52051 84.1133 6.1123C84.9297 5.69694 85.8356 5.49284 86.8311 5.5ZM86.8311 7.82031C86.3226 7.82031 85.8643 7.91699 85.4561 8.11035C85.055 8.30371 84.7399 8.58301 84.5107 8.94824C84.2816 9.31348 84.167 9.75033 84.167 10.2588C84.167 10.7673 84.2816 11.2077 84.5107 11.5801C84.7399 11.9453 85.055 12.2282 85.4561 12.4287C85.8643 12.6221 86.3226 12.7188 86.8311 12.7188C87.3395 12.7188 87.7943 12.6221 88.1953 12.4287C88.6035 12.2282 88.9222 11.9453 89.1514 11.5801C89.3877 11.2077 89.5059 10.7673 89.5059 10.2588C89.5059 9.75033 89.3877 9.31348 89.1514 8.94824C88.9222 8.58301 88.6071 8.30371 88.2061 8.11035C87.805 7.91699 87.3467 7.82031 86.8311 7.82031ZM115.781 23.9766H113.074V4.4043H115.781V23.9766ZM118.682 14.3301H115.18V12.085H118.682V14.3301ZM111.742 9.53906H100.259V7.33691H111.742V9.53906ZM106.049 10.624C107.001 10.624 107.857 10.8245 108.616 11.2256C109.375 11.6195 109.97 12.1709 110.399 12.8799C110.836 13.5889 111.055 14.391 111.055 15.2861C111.055 16.1813 110.836 16.9834 110.399 17.6924C109.97 18.4014 109.375 18.9564 108.616 19.3574C107.857 19.7513 107.001 19.9482 106.049 19.9482C105.096 19.9482 104.241 19.7513 103.481 19.3574C102.722 18.9564 102.128 18.4014 101.698 17.6924C101.269 16.9834 101.054 16.1813 101.054 15.2861C101.054 14.391 101.269 13.5889 101.698 12.8799C102.128 12.1709 102.722 11.6195 103.481 11.2256C104.241 10.8245 105.096 10.624 106.049 10.624ZM106.049 12.8584C105.598 12.8584 105.189 12.9587 104.824 13.1592C104.466 13.3525 104.183 13.6354 103.976 14.0078C103.775 14.373 103.675 14.7992 103.675 15.2861C103.675 15.7803 103.775 16.21 103.976 16.5752C104.183 16.9404 104.466 17.2233 104.824 17.4238C105.189 17.6172 105.598 17.7139 106.049 17.7139C106.514 17.7139 106.926 17.6172 107.284 17.4238C107.642 17.2233 107.918 16.9404 108.111 16.5752C108.312 16.21 108.412 15.7803 108.412 15.2861C108.412 14.7992 108.312 14.373 108.111 14.0078C107.918 13.6354 107.642 13.3525 107.284 13.1592C106.926 12.9587 106.514 12.8584 106.049 12.8584ZM107.413 8.1748H104.685V4.71582H107.413V8.1748ZM135.805 23.9766H133.022V4.4043H135.805V23.9766ZM129.95 6.4668C129.95 8.5651 129.667 10.4701 129.102 12.1816C128.543 13.8861 127.594 15.4544 126.255 16.8867C124.916 18.3118 123.122 19.5579 120.873 20.625L119.434 18.4336C121.317 17.5456 122.828 16.5465 123.967 15.4365C125.105 14.3265 125.933 13.0804 126.448 11.6982C126.964 10.3161 127.222 8.7334 127.222 6.9502V6.4668H129.95ZM128.479 8.62598H120.476V6.4668H128.479V8.62598Z" fill="url(#paint0_linear_748_1866)"/>
<defs>
<linearGradient id="sparkle-grad" x1="2.78" y1="1.12" x2="26.5" y2="25.22" gradientUnits="userSpaceOnUse">
<stop stop-color="#8B7BF8"/>
<stop offset="0.5" stop-color="#4B8EF5"/>
<stop offset="1" stop-color="#7FE4FF"/>
</linearGradient>
<linearGradient id="paint0_linear_748_1866" x1="13.9318" y1="13.2353" x2="138" y2="13.2353" gradientUnits="userSpaceOnUse">
<stop stop-color="#31B1FF"/>
<stop offset="0.793269" stop-color="#5F8AFE"/>
</linearGradient>
</defs>
</svg>
