<svg width="306" height="306" viewBox="0 0 306 306" fill="none" xmlns="http://www.w3.org/2000/svg">
<rect width="305.5" height="305.5" rx="30" fill="url(#paint0_linear_629_1619)"/>
<path d="M165.024 209.169C158.766 208.53 153.729 206.617 148.931 203.058C143.408 198.961 139.852 192.739 138.974 185.639C138.785 184.109 138.813 180.693 139.029 178.84C139.342 176.166 139.609 175.192 141.241 170.777C141.512 170.045 141.515 169.997 141.309 169.683C141.03 169.257 140.559 169.14 140.165 169.398C139.998 169.508 139.453 170.148 138.955 170.821C135.418 175.602 132.404 178.953 125.257 186.054C121.08 190.203 119.907 191.21 116.444 193.616C109.95 198.128 103.401 200.967 96.8133 202.127C94.9798 202.449 94.5533 202.479 91.7423 202.477C88.4768 202.475 87.7123 202.388 85.0408 201.715C82.5513 201.088 79.9498 199.935 77.6498 198.439C74.3773 196.311 71.1383 192.88 68.8893 189.16C65.9448 184.29 63.9723 178.081 63.2258 171.331C62.9598 168.928 62.9193 162.302 63.1553 159.894C63.9053 152.254 65.8208 144.938 68.9093 137.913C75.3468 123.271 86.5748 111.632 99.6388 106.057C106.228 103.245 112.819 102.695 117.547 104.563C121.387 106.08 124.037 109.69 124.905 114.59C125.071 115.521 125.119 116.521 125.118 118.931C125.115 121.754 125.081 122.273 124.767 124.192C123.767 130.311 121.076 138.396 117.137 147.116C115.06 151.714 115.017 151.855 115.601 152.238C116.022 152.514 116.399 152.491 116.934 152.158C117.183 152.003 119.399 149.826 121.859 147.321C126.324 142.775 128.817 140.116 136.147 132.08C141.555 126.151 148.071 119.661 152.19 116.099C159.362 109.897 166.577 105.875 172.538 104.754C174.186 104.445 177.885 104.386 179.436 104.646C185.178 105.606 188.571 109.308 189.774 115.925C190.048 117.436 190.155 122.115 189.963 124.221C189.59 128.319 188.597 132.599 186.692 138.318C185.235 142.694 184.042 145.632 181.324 151.538C180.902 152.454 180.557 153.303 180.557 153.425C180.557 153.698 180.962 154.147 181.307 154.256C181.869 154.435 182.359 154.086 188.45 149.178C190.206 147.762 192.798 145.674 194.211 144.537C207.503 133.834 216.717 128.317 224.839 126.195C228.795 125.162 233.359 124.974 236.426 125.718C238.449 126.209 239.986 127.036 241.35 128.37C242.927 129.911 243.698 131.682 243.951 134.345C244.573 140.89 241.463 150.565 235.014 162.148C231.844 167.841 226.84 175.308 224.481 177.864C224.058 178.323 223.149 179.372 222.462 180.194C221.775 181.017 220.809 182.113 220.316 182.63C219.823 183.146 219.334 183.738 219.229 183.945C218.968 184.457 213.707 189.623 211.623 191.413C205.706 196.495 200.769 199.767 194.148 202.996C187.065 206.452 180.365 208.42 173.305 209.12C171.225 209.326 166.817 209.353 165.024 209.169Z" fill="white" stroke="white" stroke-width="0.5"/>
<path d="M230.48 123.614C230.068 123.554 229.364 123.384 228.914 123.236C225.108 121.984 222.374 118.979 221.236 114.8C221 113.93 220.962 113.466 220.959 111.352C220.956 109.211 220.991 108.77 221.242 107.784C222.71 102.015 227.527 97.213 233.273 95.7915C234.754 95.425 237.539 95.4 238.99 95.74C244.213 96.9635 247.523 100.766 248.08 106.184C248.456 109.83 247.519 113.388 245.31 116.702C244.525 117.88 242.184 120.234 241.061 120.976C240.018 121.664 238.006 122.642 236.802 123.046C235.008 123.647 232.347 123.886 230.48 123.614Z" fill="white" stroke="white" stroke-width="0.5"/>
<defs>
<linearGradient id="paint0_linear_629_1619" x1="152.75" y1="0" x2="152.75" y2="305.5" gradientUnits="userSpaceOnUse">
<stop stop-color="#6087FE"/>
<stop offset="1" stop-color="#2AB8FF"/>
</linearGradient>
</defs>
</svg>
