<svg width="759" height="249" viewBox="0 0 759 249" xmlns="http://www.w3.org/2000/svg" fill="none">
  <path d="M 34.816,38 C 53.914,38 55.811,38.155 56.263,39.750 C 69.100,85.055 87.421,147.720 88.015,148.357 C 88.842,149.244 90.351,144.637 98.943,115 C 101.733,105.375 107.955,84.225 112.769,68 C 115.687,58.167 118.604,48.333 121.522,38.500 C 129.044,38.411 136.567,38.321 144.089,38.232 C 151.611,38.143 159.133,38.052 166.655,37.963 C 168.043,42.552 169.432,47.143 170.820,51.732 C 176.494,70.488 186.524,104.349 193.561,128.500 C 199.679,149.496 199.719,149.615 200.476,148.858 C 200.738,148.596 206.124,130.273 212.447,108.141 C 225.093,63.875 227.673,57.498 236.646,48.307 C 240.148,44.720 244.421,41.745 249.678,39.235 C 257.244,35.622 257.860,35.500 268.500,35.500 C 279.148,35.500 279.751,35.620 287.354,39.250 C 298.170,44.414 303.620,50.373 320.750,75.761 C 328.587,87.377 335,97.201 335,97.591 C 335,97.981 332.693,101.896 329.874,106.291 C 327.055,110.686 322.840,118.297 320.507,123.206 C 319.093,126.181 317.680,129.156 316.266,132.131 C 315.109,130.526 313.951,128.920 312.794,127.315 C 310.884,124.667 302.464,112.289 294.083,99.809 C 278.058,75.947 275.165,72.330 271.324,71.366 C 267.634,70.440 263.102,72.880 261.056,76.893 C 260.045,78.877 256.248,90.175 252.619,102 C 248.990,113.825 240.910,139.925 234.662,160 C 230.875,172.167 227.089,184.333 223.302,196.500 C 215.350,196.500 207.397,196.500 199.445,196.500 C 191.493,196.500 183.540,196.500 175.588,196.500 C 175.188,195.167 174.787,193.833 174.387,192.500 C 171.967,184.435 147.189,100.322 145.592,94.750 C 144.686,91.588 143.616,89 143.215,89 C 142.814,89 141.455,92.713 140.194,97.250 C 135.464,114.276 111.706,193.571 110.826,195.268 C 109.983,196.894 108.044,197.015 86.739,196.768 C 79.015,196.679 71.293,196.589 63.569,196.500 C 61.624,190.500 59.680,184.500 57.735,178.500 C 54.526,168.600 45.137,138.675 36.870,112 C 28.603,85.325 20.350,58.775 18.530,53 C 16.710,47.225 14.916,41.487 14.543,40.250 C 14.317,39.500 14.091,38.750 13.865,38 C 20.849,38 27.832,38 34.816,38 Z" fill="#212121" />
  <path d="M 631.244,38.004 C 674.671,38.008 682.411,38.640 695.711,43.265 C 707.578,47.392 715.766,52.585 725.103,61.909 C 732.279,69.075 734.475,72.075 738.347,80 C 744.442,92.475 746.116,99.087 746.729,113.113 C 748.535,154.407 723.371,186.171 682.066,194.736 C 675.953,196.004 666.529,196.323 633,196.402 C 619.167,196.435 605.333,196.467 591.500,196.500 C 591.415,170.083 591.329,143.667 591.244,117.250 C 591.159,90.833 591.073,64.417 590.988,38 C 604.407,38.001 617.825,38.003 631.244,38.004 ZM 707.839,110.173 C 706.431,98.055 702.828,90.785 694.419,83.100 C 684.611,74.136 670.879,70.774 645.903,71.223 C 640.769,71.315 635.634,71.408 630.500,71.500 C 630.500,86.667 630.500,101.833 630.500,117 C 630.500,132.167 630.500,147.333 630.500,162.500 C 636.833,162.496 643.167,162.493 649.500,162.489 C 669.552,162.478 674.978,161.698 684.720,157.426 C 690.817,154.752 699.174,147.284 702.505,141.534 C 707.181,133.462 709.179,121.713 707.839,110.173 Z" fill="#212121" />
  <path d="M 406.629,165 C 429.495,114.895 440.530,90.495 452.305,64 C 456.083,55.500 459.860,47 463.638,38.500 C 470.410,38.500 477.181,38.500 483.953,38.500 C 490.725,38.500 497.497,38.500 504.269,38.500 C 506.847,44.167 509.426,49.833 512.004,55.500 C 516.258,64.850 525.830,86 533.274,102.500 C 540.718,119 552.936,145.958 560.425,162.407 C 567.914,178.856 574.306,193.368 574.629,194.657 C 574.825,195.438 575.021,196.219 575.217,197 C 568.665,197 562.114,197 555.562,197 C 549.010,197 542.459,197 535.907,197 C 535.395,196.083 534.883,195.167 534.371,194.250 C 533.526,192.738 530.488,186.100 527.620,179.500 C 525.882,175.500 524.143,171.500 522.405,167.500 C 519.421,166.693 516.437,165.885 513.453,165.078 C 496.980,160.621 459.399,161.911 448.030,167.324 C 446.186,168.202 444.111,171.796 439.848,181.500 C 436.707,188.650 433.638,195.062 433.029,195.750 C 432.214,196.669 426.772,197 412.461,197 C 397.515,197 393.019,196.710 393.083,195.750 C 393.129,195.062 399.225,181.225 406.629,165 ZM 501.443,120 C 498.484,113.125 493.461,100.879 490.281,92.787 C 487.101,84.695 484.098,78.191 483.606,78.335 C 482.424,78.681 459.579,131.912 460.302,132.635 C 460.610,132.943 464.968,132.633 469.988,131.947 C 478.269,130.815 482.567,130.862 504.161,132.320 C 505.048,132.380 505.935,132.440 506.822,132.500 C 505.029,128.333 503.236,124.167 501.443,120 Z" fill="#212121" />
  <path d="M 322.991,149.981 C 323.977,139.850 326.360,131.984 331.162,123 C 333.367,118.875 346.719,98.070 360.835,76.766 C 369.390,63.855 377.945,50.942 386.500,38.031 C 393.417,38.026 400.333,38.021 407.250,38.016 C 418.663,38.007 428,38.247 428,38.549 C 428,38.851 414.784,58.764 398.631,82.799 C 382.478,106.834 368.259,128.481 367.033,130.903 C 361.762,141.311 361.641,142.109 361.056,170 C 360.871,178.833 360.685,187.667 360.500,196.500 C 354.167,196.500 347.833,196.500 341.500,196.500 C 335.167,196.500 328.833,196.500 322.500,196.500 C 322.460,190 322.420,183.500 322.380,177 C 322.314,166.275 322.588,154.116 322.991,149.981 Z" fill="#212121" />
</svg>
