<svg width="372" height="229" viewBox="0 0 372 229" fill="none" xmlns="http://www.w3.org/2000/svg">
<path d="M204.548 227.838C192.032 226.559 181.959 222.734 172.362 215.615C161.317 207.421 154.204 194.977 152.448 180.778C152.07 177.717 152.126 170.886 152.559 167.18C153.185 161.832 153.719 159.884 156.983 151.054C157.524 149.589 157.53 149.493 157.119 148.866C156.561 148.014 155.618 147.779 154.831 148.295C154.496 148.515 153.407 149.795 152.411 151.141C145.337 160.703 139.309 167.406 125.015 181.607C116.661 189.906 114.314 191.92 107.388 196.732C94.4006 205.756 81.3016 211.434 68.1266 213.753C64.4596 214.398 63.6066 214.457 57.9846 214.453C51.4536 214.45 49.9246 214.276 44.5816 212.93C39.6026 211.676 34.3996 209.37 29.7996 206.378C23.2546 202.121 16.7766 195.259 12.2786 187.82C6.38959 178.079 2.44459 165.661 0.951586 152.162C0.419586 147.355 0.338584 134.103 0.810584 129.287C2.31058 114.008 6.14158 99.3749 12.3186 85.3259C25.1936 56.0419 47.6496 32.7629 73.7776 21.6129C86.9556 15.9899 100.139 14.8899 109.595 18.6259C117.275 21.6589 122.574 28.8799 124.311 38.6789C124.642 40.5409 124.739 42.5409 124.736 47.3619C124.731 53.0069 124.662 54.0459 124.035 57.8839C122.035 70.1219 116.653 86.2919 108.774 103.732C104.62 112.927 104.535 113.21 105.703 113.975C106.545 114.527 107.298 114.482 108.369 113.815C108.866 113.505 113.298 109.152 118.219 104.141C127.148 95.0489 132.134 89.7309 146.795 73.6589C157.611 61.8019 170.643 48.8209 178.88 41.6979C193.225 29.2939 207.655 21.2489 219.577 19.0079C222.873 18.3889 230.27 18.2719 233.372 18.7909C244.857 20.7109 251.643 28.1149 254.048 41.3489C254.597 44.3719 254.811 53.7299 254.427 57.9419C253.68 66.1379 251.694 74.6979 247.885 86.1349C244.97 94.8879 242.584 100.764 237.148 112.576C236.304 114.408 235.614 116.106 235.614 116.349C235.614 116.895 236.424 117.793 237.115 118.012C238.239 118.369 239.218 117.672 251.4 107.855C254.912 105.024 260.097 100.847 262.922 98.5729C289.506 77.1679 307.934 66.1329 324.178 61.8899C332.09 59.8239 341.218 59.4479 347.352 60.9359C351.399 61.9179 354.472 63.5719 357.2 66.2389C360.354 69.3209 361.896 72.8629 362.402 78.1899C363.646 91.2799 357.426 110.63 344.528 133.796C338.189 145.182 328.181 160.115 323.463 165.228C322.616 166.146 320.798 168.243 319.424 169.888C318.05 171.533 316.119 173.725 315.133 174.759C314.147 175.792 313.168 176.976 312.958 177.389C312.437 178.414 301.915 188.745 297.747 192.325C285.912 202.489 276.038 209.033 262.797 215.492C248.63 222.403 235.23 226.34 221.111 227.74C216.95 228.152 208.135 228.205 204.548 227.838Z" fill="white" stroke="white"/>
<path d="M335.459 56.7289C334.636 56.6089 333.227 56.2679 332.327 55.9719C324.716 53.4679 319.248 47.4589 316.972 39.0999C316.499 37.3609 316.424 36.4319 316.418 32.2049C316.411 27.9229 316.481 27.0409 316.983 25.0689C319.92 13.5299 329.554 3.92593 341.045 1.08293C344.007 0.349926 349.578 0.299929 352.48 0.979929C362.925 3.42693 369.545 11.0329 370.66 21.8679C371.412 29.1609 369.537 36.2769 365.119 42.9049C363.55 45.2599 358.868 49.9689 356.621 51.4519C354.535 52.8289 350.512 54.7839 348.103 55.5919C344.516 56.7939 339.194 57.2729 335.459 56.7289Z" fill="white" stroke="white"/>
</svg>
