<svg width="25" height="25" viewBox="0 0 25 25" fill="none" xmlns="http://www.w3.org/2000/svg">
<circle cx="12.5" cy="12.5" r="12.5" fill="#FEE500"/>
<path d="M12.537 6.0332C8.64802 6.0332 5.51172 8.54222 5.51172 11.5882C5.51172 13.5653 6.81642 15.2965 8.77347 16.2851L8.11108 18.759C8.0986 18.7961 8.09667 18.8359 8.10554 18.874C8.1144 18.9121 8.1337 18.947 8.16126 18.9748C8.20146 19.0102 8.25319 19.0299 8.30679 19.03C8.35123 19.0264 8.3934 19.0089 8.42722 18.9798L11.2775 17.0579C11.6982 17.116 12.1223 17.1461 12.5471 17.1482C16.4311 17.1482 19.5724 14.6392 19.5724 11.5882C19.5724 8.5372 16.421 6.0332 12.537 6.0332Z" fill="#392020"/>
<path d="M7.97014 10.7099H7.20237C7.10721 10.7127 7.01323 10.6883 6.9314 10.6397C6.89506 10.6169 6.86383 10.5869 6.83965 10.5515C6.81547 10.5161 6.79887 10.4761 6.79089 10.4339C6.78845 10.4072 6.78845 10.3804 6.79089 10.3537C6.78851 10.3037 6.79821 10.2539 6.81917 10.2084C6.84014 10.163 6.87175 10.1233 6.91132 10.0927C6.99881 10.0294 7.1044 9.99591 7.21241 9.99736H9.52574C9.62166 9.99399 9.71628 10.0203 9.79672 10.0726C9.83391 10.0944 9.8658 10.1242 9.8901 10.1597C9.9144 10.1953 9.93049 10.2358 9.93723 10.2784C9.93968 10.3034 9.93968 10.3287 9.93723 10.3537C9.93959 10.4044 9.92991 10.4549 9.90898 10.5011C9.88804 10.5474 9.85645 10.5879 9.81679 10.6196C9.73144 10.6829 9.62687 10.7148 9.52072 10.7099H8.77805V13.3495C8.78107 13.4057 8.77236 13.4619 8.7525 13.5146C8.73263 13.5673 8.70203 13.6153 8.66263 13.6556C8.62486 13.694 8.57945 13.7242 8.52932 13.7441C8.4792 13.764 8.42546 13.7731 8.37158 13.771C8.27734 13.7737 8.1851 13.7435 8.11064 13.6857C8.03976 13.6292 7.99165 13.549 7.97516 13.4598C7.9702 13.4232 7.9702 13.3861 7.97516 13.3495L7.97014 10.7099Z" fill="#FEE500"/>
<path d="M10.1587 10.1931C10.1808 10.1105 10.2326 10.039 10.3042 9.99232C10.3805 9.94906 10.4675 9.9282 10.5551 9.9321H10.7458C10.8388 9.92877 10.9309 9.95136 11.0118 9.99734C11.0975 10.055 11.1584 10.1428 11.1824 10.2432L12.186 13.0784C12.212 13.1524 12.2338 13.2278 12.2512 13.3043C12.253 13.3361 12.253 13.3679 12.2512 13.3996C12.2529 13.4485 12.2439 13.4972 12.2249 13.5423C12.2058 13.5873 12.1771 13.6277 12.1408 13.6606C12.1057 13.6966 12.0635 13.725 12.0169 13.744C11.9702 13.763 11.9202 13.7722 11.8699 13.7709C11.7925 13.7786 11.7147 13.7601 11.6492 13.7182C11.5836 13.6763 11.5341 13.6136 11.5086 13.5401L11.2978 12.9229H9.97805L9.76729 13.5401C9.74236 13.615 9.69223 13.679 9.62543 13.7211C9.55863 13.7632 9.4793 13.7808 9.40097 13.7709C9.31611 13.7732 9.233 13.7466 9.16512 13.6957C9.09898 13.6431 9.05437 13.5682 9.03967 13.4849C9.037 13.4566 9.037 13.428 9.03967 13.3996C9.03105 13.3498 9.03105 13.2989 9.03967 13.2491C9.03967 13.1939 9.07479 13.1336 9.09486 13.0784L10.1587 10.1931ZM10.6605 10.8505L10.1838 12.3559H11.1322L10.6605 10.8505Z" fill="#FEE500"/>
<path d="M12.3657 10.3536C12.3606 10.241 12.4003 10.131 12.4761 10.0475C12.5146 10.0087 12.5609 9.97828 12.6119 9.9584C12.6629 9.93852 12.7175 9.92953 12.7721 9.93206C12.8661 9.93096 12.9579 9.96097 13.0331 10.0174C13.1028 10.0763 13.1491 10.1581 13.1635 10.2482C13.1685 10.2832 13.1685 10.3187 13.1635 10.3536V12.9931H14.5435C14.6392 12.9919 14.7332 13.018 14.8145 13.0684C14.851 13.0909 14.8824 13.1209 14.9066 13.1563C14.9308 13.1918 14.9473 13.2319 14.955 13.2741C14.955 13.2741 14.955 13.3243 14.955 13.3494C14.9574 13.3994 14.9477 13.4492 14.9267 13.4946C14.9058 13.54 14.8741 13.5797 14.8346 13.6104C14.7471 13.6737 14.6415 13.7071 14.5335 13.7057H12.8374C12.7293 13.7126 12.622 13.6845 12.5313 13.6254C12.4501 13.5648 12.3961 13.4747 12.3807 13.3745C12.377 13.3194 12.377 13.264 12.3807 13.2089L12.3657 10.3536Z" fill="#FEE500"/>
<path d="M15.0455 10.3542C15.0425 10.242 15.082 10.1327 15.1559 10.0481C15.2311 9.97981 15.3276 9.93945 15.4291 9.93397C15.5306 9.92848 15.6308 9.95817 15.713 10.018C15.7842 10.0764 15.8322 10.1582 15.8484 10.2488C15.8509 10.2839 15.8509 10.3192 15.8484 10.3542V11.5836L17.118 10.1183C17.1669 10.0684 17.2189 10.0215 17.2736 9.97789C17.3251 9.94719 17.3842 9.9315 17.4442 9.93268C17.5319 9.9322 17.6177 9.95847 17.6901 10.008C17.7242 10.0309 17.7533 10.0606 17.7757 10.0951C17.7982 10.1296 17.8134 10.1682 17.8205 10.2087C17.8226 10.2186 17.8226 10.2289 17.8205 10.2388C17.8181 10.2504 17.8181 10.2624 17.8205 10.2739C17.8204 10.3267 17.8065 10.3786 17.7804 10.4245C17.7538 10.4731 17.7218 10.5185 17.6851 10.5599L16.8521 11.4733L17.8557 13.0289V13.079C17.9078 13.1509 17.9484 13.2305 17.9761 13.3149V13.34C17.9819 13.3981 17.9735 13.4568 17.9517 13.511C17.9298 13.5652 17.8952 13.6132 17.8507 13.6511C17.7669 13.7144 17.6645 13.7479 17.5596 13.7465C17.4899 13.7493 17.4206 13.7337 17.3589 13.7013C17.292 13.6564 17.237 13.5962 17.1983 13.5256L16.2649 12.0202L15.8183 12.4869V13.3249C15.8213 13.4372 15.7819 13.5465 15.7079 13.631C15.6683 13.6698 15.6211 13.7 15.5693 13.7199C15.5175 13.7397 15.4623 13.7488 15.4068 13.7465C15.3143 13.7484 15.2238 13.7182 15.1509 13.6611C15.08 13.6046 15.0319 13.5245 15.0154 13.4353C15.0105 13.3987 15.0105 13.3615 15.0154 13.3249L15.0455 10.3542Z" fill="#FEE500"/>
</svg>
