<svg width="253" height="108" viewBox="0 0 253 108" fill="none" xmlns="http://www.w3.org/2000/svg">
<g filter="url(#filter0_d_633_1734)">
<rect x="16" y="16" width="221" height="54" rx="15" fill="white"/>
<path d="M126.5 92L113.077 68.75L139.923 68.75L126.5 92Z" fill="white"/>
<path d="M79.8154 43.2266H71.2705V42.1875H79.8154V43.2266ZM81.0801 46.6855H69.8691V45.626H81.0801V46.6855ZM76.1035 46.0977H74.8115V42.7139H76.1035V46.0977ZM79.6924 37.915H72.5967V42.5908H71.2705V36.8555H79.6924V37.915ZM79.4189 40.5332H72.1934V39.4941H79.4189V40.5332ZM85.9336 45.79H84.6553V42.2012H85.9336V45.79ZM90.5 45.79H89.1943V42.2012H90.5V45.79ZM93.1797 46.6309H81.9688V45.5576H93.1797V46.6309ZM87.5537 36.6162C88.4287 36.6162 89.208 36.7507 89.8916 37.0195C90.5752 37.2839 91.1084 37.6598 91.4912 38.1475C91.8786 38.6305 92.0723 39.1865 92.0723 39.8154C92.0723 40.4489 91.8786 41.0072 91.4912 41.4902C91.1084 41.9688 90.5752 42.3424 89.8916 42.6113C89.208 42.8757 88.4287 43.0078 87.5537 43.0078C86.6833 43.0078 85.904 42.8757 85.2158 42.6113C84.5322 42.3424 83.9967 41.9688 83.6094 41.4902C83.222 41.0072 83.0283 40.4489 83.0283 39.8154C83.0283 39.1865 83.222 38.6305 83.6094 38.1475C83.9967 37.6598 84.5322 37.2839 85.2158 37.0195C85.904 36.7507 86.6833 36.6162 87.5537 36.6162ZM87.5537 37.6689C86.9157 37.6644 86.3506 37.751 85.8584 37.9287C85.3708 38.1019 84.988 38.3525 84.71 38.6807C84.4365 39.0042 84.2998 39.3825 84.2998 39.8154C84.2998 40.2484 84.4365 40.6289 84.71 40.957C84.988 41.2852 85.373 41.5404 85.8652 41.7227C86.3574 41.9049 86.9202 41.9961 87.5537 41.9961C88.1826 41.9961 88.7432 41.9049 89.2354 41.7227C89.7275 41.5404 90.1126 41.2852 90.3906 40.957C90.6686 40.6289 90.8076 40.2484 90.8076 39.8154C90.8076 39.3825 90.6686 39.0042 90.3906 38.6807C90.1172 38.3525 89.7344 38.1019 89.2422 37.9287C88.75 37.751 88.1872 37.6644 87.5537 37.6689ZM97.541 36.3291C98.1517 36.3291 98.7008 36.4453 99.1885 36.6777C99.6807 36.9102 100.063 37.236 100.337 37.6553C100.61 38.07 100.747 38.5417 100.747 39.0703C100.747 39.599 100.61 40.0706 100.337 40.4854C100.063 40.9001 99.6807 41.2236 99.1885 41.4561C98.7008 41.6885 98.1517 41.8047 97.541 41.8047C96.9258 41.8047 96.3721 41.6885 95.8799 41.4561C95.3923 41.2236 95.0094 40.9001 94.7314 40.4854C94.458 40.0706 94.3213 39.599 94.3213 39.0703C94.3213 38.5417 94.458 38.07 94.7314 37.6553C95.0094 37.236 95.3923 36.9102 95.8799 36.6777C96.3721 36.4453 96.9258 36.3291 97.541 36.3291ZM97.541 37.4092C97.1719 37.4092 96.8392 37.4775 96.543 37.6143C96.2467 37.751 96.0143 37.9469 95.8457 38.2021C95.6771 38.4528 95.5928 38.7422 95.5928 39.0703C95.5928 39.3984 95.6771 39.6901 95.8457 39.9453C96.0143 40.2005 96.2467 40.3988 96.543 40.54C96.8392 40.6813 97.1719 40.752 97.541 40.752C97.9147 40.752 98.2497 40.6813 98.5459 40.54C98.8421 40.3988 99.0745 40.2005 99.2432 39.9453C99.4118 39.6901 99.4961 39.3984 99.4961 39.0703C99.4961 38.7422 99.4118 38.4528 99.2432 38.2021C99.0745 37.9469 98.8421 37.751 98.5459 37.6143C98.2497 37.4775 97.9147 37.4092 97.541 37.4092ZM104.227 42.1533H102.935V35.9053H104.227V42.1533ZM104.227 45.79H97.4795V47.5264H96.208V44.833H102.941V43.7393H96.1807V42.7139H104.227V45.79ZM104.637 48.0049H96.208V46.9727H104.637V48.0049ZM113.701 37.8057C113.701 38.6032 113.562 39.346 113.284 40.0342C113.011 40.7178 112.614 41.3148 112.095 41.8252C111.575 42.3311 110.958 42.7184 110.242 42.9873L109.538 41.9346C110.181 41.7158 110.737 41.3991 111.206 40.9844C111.675 40.5697 112.033 40.0889 112.279 39.542C112.525 38.9951 112.648 38.4163 112.648 37.8057V36.5889H113.701V37.8057ZM113.94 37.7441C113.94 38.3138 114.057 38.8561 114.289 39.3711C114.526 39.8861 114.868 40.3372 115.314 40.7246C115.761 41.1074 116.29 41.3991 116.9 41.5996L116.183 42.6113C115.499 42.3607 114.911 41.9984 114.419 41.5244C113.927 41.0505 113.546 40.4922 113.277 39.8496C113.013 39.2025 112.881 38.5007 112.881 37.7441V36.5889H113.94V37.7441ZM119.799 43.1377H118.5V35.9053H119.799V43.1377ZM115.69 43.4863C116.552 43.4863 117.292 43.5775 117.912 43.7598C118.536 43.9375 119.013 44.2041 119.341 44.5596C119.674 44.9105 119.84 45.332 119.84 45.8242C119.84 46.3073 119.674 46.722 119.341 47.0684C119.013 47.4193 118.536 47.6859 117.912 47.8682C117.292 48.0505 116.552 48.1416 115.69 48.1416C114.838 48.1416 114.102 48.0505 113.482 47.8682C112.863 47.6859 112.386 47.4193 112.054 47.0684C111.721 46.722 111.555 46.3073 111.555 45.8242C111.555 45.332 111.721 44.9105 112.054 44.5596C112.386 44.2041 112.863 43.9375 113.482 43.7598C114.102 43.5775 114.838 43.4863 115.69 43.4863ZM115.69 44.498C115.103 44.498 114.592 44.5505 114.159 44.6553C113.731 44.7555 113.403 44.9059 113.175 45.1064C112.951 45.3024 112.84 45.5417 112.84 45.8242C112.84 46.0885 112.951 46.3187 113.175 46.5146C113.403 46.7061 113.731 46.8542 114.159 46.959C114.592 47.0638 115.103 47.1162 115.69 47.1162C116.292 47.1162 116.805 47.0638 117.229 46.959C117.657 46.8542 117.983 46.7061 118.206 46.5146C118.434 46.3187 118.548 46.0885 118.548 45.8242C118.548 45.5417 118.434 45.3024 118.206 45.1064C117.983 44.9059 117.657 44.7555 117.229 44.6553C116.805 44.5505 116.292 44.498 115.69 44.498ZM118.732 39.4736H115.916V38.4072H118.732V39.4736ZM127.742 38.2705H122.239V37.2246H127.742V38.2705ZM125.356 44.8809H124.078V40.7246H125.356V44.8809ZM128.508 37.9766C128.503 38.5553 128.496 39.0407 128.487 39.4326C128.478 39.82 128.449 40.3076 128.398 40.8955C128.348 41.4788 128.269 42.1077 128.159 42.7822L126.867 42.6729C127.018 41.7295 127.111 40.9023 127.147 40.1914C127.188 39.4805 127.209 38.7422 127.209 37.9766V37.2246H128.508V37.9766ZM131.222 48.1553H129.923V35.9053H131.222V48.1553ZM133.095 42.0713H130.859V40.9639H133.095V42.0713ZM121.569 44.4707C123.078 44.457 124.452 44.4274 125.691 44.3818C126.936 44.3317 128.111 44.2406 129.219 44.1084L129.287 45.0791C128.139 45.2568 126.926 45.3776 125.65 45.4414C124.374 45.5052 123.062 45.5326 121.713 45.5234L121.569 44.4707ZM143.328 48.1484H142.036V35.9053H143.328V48.1484ZM145.229 41.8799H142.993V40.7998H145.229V41.8799ZM140.122 37.2041C140.122 38.43 139.931 39.5762 139.548 40.6426C139.17 41.7044 138.563 42.6842 137.729 43.582C136.9 44.4753 135.831 45.2454 134.523 45.8926L133.799 44.8809C134.924 44.3158 135.861 43.6641 136.608 42.9258C137.356 42.1829 137.916 41.3558 138.29 40.4443C138.664 39.5283 138.851 38.5234 138.851 37.4297V37.2041H140.122ZM139.507 38.2842H134.4V37.2041H139.507V38.2842ZM152.646 38.7969H153.951V45.3389H152.646V38.7969ZM150.027 41.415H156.576V42.7207H150.027V41.415ZM162.387 47H160.869V38.6123H160.814L158.456 40.1572V38.7148L160.91 37.1016H162.387V47ZM168.354 47.1367C167.653 47.1367 167.024 47.0182 166.468 46.7812C165.916 46.5397 165.486 46.2093 165.176 45.79C164.87 45.3662 164.718 44.89 164.718 44.3613C164.718 43.9466 164.807 43.5592 164.984 43.1992C165.167 42.8392 165.415 42.543 165.729 42.3105C166.049 42.0736 166.399 41.9277 166.782 41.873V41.8115C166.454 41.734 166.162 41.5905 165.907 41.3809C165.652 41.1712 165.451 40.9115 165.306 40.6016C165.164 40.2917 165.094 39.959 165.094 39.6035C165.094 39.1022 165.235 38.651 165.518 38.25C165.805 37.8444 166.194 37.5299 166.687 37.3066C167.183 37.0788 167.739 36.9648 168.354 36.9648C168.97 36.9648 169.526 37.0788 170.022 37.3066C170.519 37.5299 170.909 37.8444 171.191 38.25C171.479 38.651 171.622 39.1022 171.622 39.6035C171.622 39.959 171.547 40.2917 171.396 40.6016C171.251 40.9115 171.05 41.1712 170.795 41.3809C170.544 41.5905 170.253 41.734 169.92 41.8115V41.873C170.307 41.9277 170.656 42.0736 170.966 42.3105C171.28 42.543 171.531 42.8392 171.718 43.1992C171.905 43.5592 171.998 43.9466 171.998 44.3613C171.998 44.89 171.841 45.3662 171.526 45.79C171.216 46.2093 170.786 46.5397 170.234 46.7812C169.683 47.0182 169.056 47.1367 168.354 47.1367ZM168.354 45.8926C168.778 45.8926 169.15 45.8242 169.469 45.6875C169.788 45.5508 170.034 45.3571 170.207 45.1064C170.38 44.8558 170.467 44.571 170.467 44.252C170.467 43.9102 170.376 43.6071 170.193 43.3428C170.011 43.0739 169.758 42.8643 169.435 42.7139C169.116 42.5589 168.756 42.4814 168.354 42.4814C167.953 42.4814 167.591 42.5589 167.268 42.7139C166.944 42.8643 166.691 43.0739 166.509 43.3428C166.331 43.6071 166.247 43.9102 166.256 44.252C166.247 44.571 166.329 44.8558 166.502 45.1064C166.675 45.3571 166.921 45.5508 167.24 45.6875C167.559 45.8242 167.931 45.8926 168.354 45.8926ZM168.354 41.3057C168.696 41.3057 169.004 41.2396 169.277 41.1074C169.555 40.9753 169.77 40.7907 169.92 40.5537C170.07 40.3122 170.146 40.041 170.146 39.7402C170.146 39.4349 170.07 39.166 169.92 38.9336C169.774 38.6966 169.564 38.5143 169.291 38.3867C169.018 38.2591 168.705 38.1953 168.354 38.1953C168.004 38.1953 167.689 38.2591 167.411 38.3867C167.138 38.5143 166.926 38.6966 166.775 38.9336C166.63 39.166 166.557 39.4349 166.557 39.7402C166.557 40.041 166.634 40.3122 166.789 40.5537C166.949 40.7907 167.163 40.9753 167.432 41.1074C167.701 41.2396 168.008 41.3057 168.354 41.3057ZM175.819 41.8115C175.377 41.8115 175.001 41.7113 174.691 41.5107C174.382 41.3057 174.145 41.0163 173.98 40.6426C173.821 40.2689 173.741 39.8382 173.741 39.3506C173.741 38.863 173.823 38.4323 173.987 38.0586C174.156 37.6849 174.395 37.3978 174.705 37.1973C175.02 36.9922 175.391 36.8896 175.819 36.8896C176.271 36.8896 176.651 36.9922 176.961 37.1973C177.271 37.3978 177.506 37.6826 177.665 38.0518C177.825 38.4209 177.904 38.8538 177.904 39.3506C177.904 39.8382 177.822 40.2666 177.658 40.6357C177.499 41.0049 177.262 41.2943 176.947 41.5039C176.637 41.709 176.261 41.8115 175.819 41.8115ZM175.819 40.8408C176.029 40.8408 176.204 40.7793 176.346 40.6562C176.492 40.5286 176.599 40.3555 176.667 40.1367C176.735 39.9134 176.77 39.6514 176.77 39.3506C176.77 39.0361 176.735 38.7673 176.667 38.5439C176.603 38.3206 176.501 38.1497 176.359 38.0312C176.218 37.9082 176.038 37.8512 175.819 37.8604C175.619 37.8604 175.446 37.9219 175.3 38.0449C175.159 38.1634 175.051 38.3343 174.979 38.5576C174.906 38.7809 174.869 39.0452 174.869 39.3506C174.869 39.6514 174.906 39.9134 174.979 40.1367C175.051 40.3555 175.159 40.5286 175.3 40.6562C175.446 40.7793 175.619 40.8408 175.819 40.8408ZM182.074 47.1982C181.637 47.1982 181.261 47.098 180.946 46.8975C180.632 46.6924 180.395 46.4053 180.235 46.0361C180.076 45.667 179.996 45.2363 179.996 44.7441C179.996 44.252 180.078 43.819 180.242 43.4453C180.406 43.0716 180.646 42.7845 180.96 42.584C181.274 42.3789 181.646 42.2764 182.074 42.2764C182.516 42.2764 182.892 42.3789 183.202 42.584C183.517 42.7845 183.754 43.0716 183.913 43.4453C184.073 43.819 184.152 44.252 184.152 44.7441C184.152 45.2272 184.07 45.6556 183.906 46.0293C183.742 46.403 183.505 46.6924 183.195 46.8975C182.885 47.098 182.512 47.1982 182.074 47.1982ZM182.074 46.2275C182.288 46.2275 182.466 46.1683 182.607 46.0498C182.749 45.9268 182.851 45.7559 182.915 45.5371C182.983 45.3138 183.018 45.0495 183.018 44.7441C183.018 44.4342 182.983 44.1654 182.915 43.9375C182.851 43.7096 182.751 43.5365 182.614 43.418C182.478 43.2949 182.298 43.238 182.074 43.2471C181.874 43.2471 181.701 43.3109 181.555 43.4385C181.413 43.5615 181.304 43.7347 181.227 43.958C181.154 44.1813 181.117 44.4434 181.117 44.7441C181.117 45.0449 181.154 45.307 181.227 45.5303C181.304 45.7536 181.413 45.9268 181.555 46.0498C181.696 46.1683 181.869 46.2275 182.074 46.2275ZM181.664 37.1016H182.915L176.106 47H174.855L181.664 37.1016ZM193.073 37.7578C193.073 38.5508 192.937 39.2913 192.663 39.9795C192.39 40.6676 192 41.2669 191.494 41.7773C190.988 42.2878 190.384 42.6751 189.683 42.9395L188.985 41.9072C189.61 41.6794 190.147 41.3558 190.599 40.9365C191.054 40.5173 191.403 40.0342 191.645 39.4873C191.886 38.9404 192.007 38.3639 192.007 37.7578V36.5479H193.073V37.7578ZM193.292 37.874C193.292 38.4027 193.413 38.9154 193.654 39.4121C193.896 39.9043 194.24 40.3395 194.687 40.7178C195.133 41.0915 195.657 41.3786 196.259 41.5791L195.555 42.5908C194.88 42.3538 194.292 42.0007 193.791 41.5312C193.29 41.0618 192.905 40.515 192.636 39.8906C192.371 39.2617 192.239 38.5895 192.239 37.874V36.5479H193.292V37.874ZM198.699 43.2949H197.407V35.9053H198.699V43.2949ZM200.483 40.0752H198.337V38.9883H200.483V40.0752ZM194.741 43.5889C195.58 43.5889 196.304 43.68 196.915 43.8623C197.526 44.04 197.993 44.2975 198.316 44.6348C198.645 44.972 198.809 45.3799 198.809 45.8584C198.809 46.3369 198.645 46.7471 198.316 47.0889C197.993 47.4307 197.528 47.6904 196.922 47.8682C196.316 48.0505 195.589 48.1416 194.741 48.1416C193.898 48.1416 193.167 48.0505 192.547 47.8682C191.932 47.6904 191.458 47.4307 191.125 47.0889C190.797 46.7471 190.633 46.3369 190.633 45.8584C190.633 45.3799 190.797 44.972 191.125 44.6348C191.458 44.2975 191.932 44.04 192.547 43.8623C193.167 43.68 193.898 43.5889 194.741 43.5889ZM194.741 44.6211C194.162 44.6211 193.661 44.6689 193.237 44.7646C192.813 44.8604 192.49 45.0039 192.267 45.1953C192.048 45.3822 191.938 45.6032 191.938 45.8584C191.938 46.1227 192.048 46.3506 192.267 46.542C192.49 46.7288 192.811 46.8701 193.23 46.9658C193.65 47.0615 194.153 47.1117 194.741 47.1162C195.338 47.1117 195.844 47.0615 196.259 46.9658C196.678 46.8701 196.997 46.7288 197.216 46.542C197.435 46.3506 197.544 46.1227 197.544 45.8584C197.544 45.5941 197.432 45.3708 197.209 45.1885C196.99 45.0016 196.671 44.8604 196.252 44.7646C195.833 44.6689 195.329 44.6211 194.741 44.6211ZM207.217 36.6162C207.217 37.318 206.996 37.9652 206.554 38.5576C206.116 39.1455 205.521 39.6354 204.77 40.0273C204.022 40.4147 203.197 40.6745 202.295 40.8066L201.789 39.7812C202.573 39.6901 203.293 39.4873 203.949 39.1729C204.61 38.8538 205.132 38.4733 205.515 38.0312C205.902 37.5846 206.096 37.113 206.096 36.6162V36.1035H207.217V36.6162ZM207.429 36.6162C207.429 37.0947 207.622 37.5596 208.01 38.0107C208.397 38.4619 208.919 38.847 209.575 39.166C210.236 39.485 210.947 39.6901 211.708 39.7812L211.236 40.8066C210.339 40.6745 209.514 40.4124 208.762 40.0205C208.014 39.6286 207.417 39.1387 206.971 38.5508C206.529 37.9583 206.308 37.3135 206.308 36.6162V36.1035H207.429V36.6162ZM212.344 42.7275H201.174V41.6885H212.344V42.7275ZM206.752 43.7734C207.636 43.7734 208.393 43.8577 209.021 44.0264C209.655 44.195 210.14 44.4411 210.478 44.7646C210.815 45.0882 210.983 45.487 210.983 45.9609C210.983 46.4212 210.815 46.8154 210.478 47.1436C210.14 47.4762 209.655 47.7269 209.021 47.8955C208.393 48.0687 207.636 48.1576 206.752 48.1621C205.868 48.1576 205.107 48.0687 204.469 47.8955C203.831 47.7269 203.343 47.4762 203.006 47.1436C202.669 46.8154 202.5 46.4212 202.5 45.9609C202.5 45.487 202.669 45.0882 203.006 44.7646C203.343 44.4411 203.831 44.195 204.469 44.0264C205.107 43.8577 205.868 43.7734 206.752 43.7734ZM206.752 44.7646C206.128 44.7646 205.597 44.8102 205.159 44.9014C204.722 44.9925 204.389 45.1292 204.161 45.3115C203.933 45.4893 203.819 45.7057 203.819 45.9609C203.819 46.2116 203.931 46.4281 204.154 46.6104C204.382 46.7881 204.715 46.9202 205.152 47.0068C205.594 47.098 206.128 47.1436 206.752 47.1436C207.376 47.1436 207.905 47.098 208.338 47.0068C208.775 46.9202 209.108 46.7881 209.336 46.6104C209.564 46.4281 209.678 46.2116 209.678 45.9609C209.678 45.7057 209.564 45.4893 209.336 45.3115C209.108 45.1292 208.775 44.9925 208.338 44.9014C207.905 44.8102 207.376 44.7646 206.752 44.7646ZM215.406 44.1562H214.06L213.93 37.1016H215.529L215.406 44.1562ZM214.729 47.0957C214.561 47.0957 214.401 47.0501 214.251 46.959C214.101 46.8678 213.982 46.7493 213.896 46.6035C213.809 46.4531 213.766 46.2913 213.766 46.1182C213.766 45.9495 213.809 45.79 213.896 45.6396C213.982 45.4893 214.101 45.373 214.251 45.291C214.401 45.2044 214.561 45.1611 214.729 45.1611C214.903 45.1611 215.062 45.2044 215.208 45.291C215.358 45.373 215.477 45.4893 215.563 45.6396C215.655 45.79 215.7 45.9495 215.7 46.1182C215.7 46.2913 215.655 46.4531 215.563 46.6035C215.477 46.7493 215.358 46.8678 215.208 46.959C215.062 47.0501 214.903 47.0957 214.729 47.0957Z" fill="#546171"/>
<path d="M46.8386 35.0217C47.0521 34.157 48.2813 34.157 48.4948 35.0217C49.406 38.7126 52.2879 41.5945 55.9789 42.5056C56.8436 42.7191 56.8436 43.9483 55.9789 44.1618C52.2879 45.073 49.406 47.9548 48.4948 51.6457C48.2813 52.5104 47.0521 52.5104 46.8386 51.6457C45.9274 47.9548 43.0455 45.073 39.3546 44.1618C38.4899 43.9483 38.4899 42.7191 39.3546 42.5056C43.0455 41.5945 45.9274 38.7126 46.8386 35.0217Z" fill="url(#paint0_linear_633_1734)"/>
<path d="M55.9427 31.3577C56.0291 31.0077 56.5267 31.0077 56.6131 31.3577C56.9819 32.8516 58.1484 34.0181 59.6424 34.3869C59.9924 34.4733 59.9924 34.9709 59.6424 35.0573C58.1484 35.426 56.9819 36.5925 56.6131 38.0865C56.5267 38.4364 56.0291 38.4364 55.9427 38.0865C55.5739 36.5925 54.4074 35.426 52.9135 35.0573C52.5635 34.9709 52.5635 34.4733 52.9135 34.3869C54.4074 34.0181 55.5739 32.8516 55.9427 31.3577Z" fill="url(#paint1_linear_633_1734)"/>
</g>
<defs>
<filter id="filter0_d_633_1734" x="0" y="0" width="253" height="108" filterUnits="userSpaceOnUse" color-interpolation-filters="sRGB">
<feFlood flood-opacity="0" result="BackgroundImageFix"/>
<feColorMatrix in="SourceAlpha" type="matrix" values="0 0 0 0 0 0 0 0 0 0 0 0 0 0 0 0 0 0 127 0" result="hardAlpha"/>
<feOffset/>
<feGaussianBlur stdDeviation="8"/>
<feComposite in2="hardAlpha" operator="out"/>
<feColorMatrix type="matrix" values="0 0 0 0 0.829571 0 0 0 0 0.829571 0 0 0 0 0.829571 0 0 0 0.2 0"/>
<feBlend mode="normal" in2="BackgroundImageFix" result="effect1_dropShadow_633_1734"/>
<feBlend mode="normal" in="SourceGraphic" in2="effect1_dropShadow_633_1734" result="shape"/>
</filter>
<linearGradient id="paint0_linear_633_1734" x1="47.6667" y1="31.6674" x2="47.6667" y2="55" gradientUnits="userSpaceOnUse">
<stop stop-color="#4FC3F7"/>
<stop offset="1" stop-color="#6780FE"/>
</linearGradient>
<linearGradient id="paint1_linear_633_1734" x1="56.2779" y1="30" x2="56.2779" y2="39.4441" gradientUnits="userSpaceOnUse">
<stop stop-color="#4FC3F7"/>
<stop offset="1" stop-color="#6780FE"/>
</linearGradient>
</defs>
</svg>
