<svg width="160" height="160" viewBox="0 0 160 160" fill="none" xmlns="http://www.w3.org/2000/svg">
<circle cx="80" cy="80" r="80" fill="#FEE500"/>
<path d="M80.2315 38.6104C55.3419 38.6104 35.2695 54.668 35.2695 74.1623C35.2695 86.8159 43.6196 97.8957 56.1447 104.223L51.9055 120.056C51.8255 120.293 51.8132 120.548 51.87 120.792C51.9267 121.035 52.0502 121.259 52.2266 121.436C52.4839 121.663 52.8149 121.789 53.158 121.79C53.4424 121.767 53.7123 121.655 53.9288 121.469L72.1705 109.168C74.8632 109.54 77.5775 109.733 80.2957 109.746C105.153 109.746 125.258 93.6886 125.258 74.1623C125.258 54.6359 105.089 38.6104 80.2315 38.6104Z" fill="#392020"/>
<path d="M51.0047 68.5419H46.091C45.482 68.5596 44.8805 68.4036 44.3567 68.0922C44.1242 67.9466 43.9243 67.7543 43.7696 67.5277C43.6148 67.3011 43.5086 67.045 43.4575 66.7754C43.4419 66.6045 43.4419 66.4327 43.4575 66.2618C43.4422 65.942 43.5043 65.623 43.6385 65.3323C43.7727 65.0416 43.975 64.7876 44.2283 64.5917C44.7882 64.1862 45.464 63.972 46.1552 63.9813H60.9606C61.5744 63.9598 62.18 64.1281 62.6948 64.4631C62.9328 64.6024 63.1369 64.7929 63.2924 65.0206C63.448 65.2483 63.551 65.5076 63.594 65.78C63.6097 65.9402 63.6097 66.1016 63.594 66.2618C63.6092 66.5863 63.5472 66.9096 63.4133 67.2055C63.2793 67.5013 63.0771 67.761 62.8233 67.9637C62.277 68.3687 61.6077 68.573 60.9284 68.5419H56.1753V85.4348C56.1946 85.7947 56.1389 86.1545 56.0118 86.4917C55.8846 86.829 55.6888 87.1363 55.4366 87.3938C55.1949 87.6401 54.9043 87.8331 54.5835 87.9603C54.2627 88.0875 53.9188 88.1461 53.5739 88.1324C52.9708 88.1496 52.3804 87.9569 51.9039 87.5867C51.4503 87.2251 51.1424 86.7117 51.0368 86.1413C51.0051 85.9068 51.0051 85.6692 51.0368 85.4348L51.0047 68.5419Z" fill="#FEE500"/>
<path d="M65.0118 65.234C65.153 64.7055 65.4848 64.2478 65.9431 63.9493C66.4315 63.6724 66.9881 63.5389 67.5489 63.5639H68.7693C69.3644 63.5425 69.9537 63.6871 70.4714 63.9814C71.02 64.3503 71.4098 64.912 71.5634 65.555L77.9865 83.7005C78.153 84.1739 78.2924 84.6567 78.404 85.1459C78.415 85.3492 78.415 85.5527 78.404 85.7559C78.4149 86.069 78.3573 86.3806 78.2352 86.669C78.1132 86.9574 77.9297 87.2159 77.6975 87.426C77.4725 87.6566 77.2023 87.8384 76.904 87.96C76.6056 88.0815 76.2853 88.1402 75.9632 88.1325C75.4679 88.1817 74.9704 88.0629 74.5509 87.7949C74.1314 87.5269 73.8144 87.1255 73.6509 86.6553L72.302 82.7051H63.8556L62.5067 86.6553C62.3472 87.1347 62.0263 87.544 61.5988 87.8134C61.1713 88.0827 60.6636 88.1955 60.1623 88.1325C59.6192 88.1467 59.0873 87.9769 58.6528 87.6507C58.2296 87.3141 57.944 86.8346 57.85 86.3021C57.8329 86.1205 57.8329 85.9375 57.85 85.7559C57.7948 85.4372 57.7948 85.1115 57.85 84.7927C57.85 84.4394 58.0748 84.0538 58.2032 83.7005L65.0118 65.234ZM68.2233 69.4413L65.1723 79.076H71.2422L68.2233 69.4413Z" fill="#FEE500"/>
<path d="M79.1395 66.2622C79.1069 65.5415 79.3609 64.8372 79.846 64.3032C80.0927 64.0544 80.3888 63.86 80.7151 63.7328C81.0415 63.6055 81.3909 63.548 81.7409 63.5642C82.3425 63.5572 82.9296 63.7493 83.4109 64.1103C83.857 64.487 84.1532 65.011 84.2459 65.5875C84.2775 65.8112 84.2775 66.0385 84.2459 66.2622V83.1551H93.0777C93.6899 83.1471 94.2916 83.3139 94.812 83.6365C95.0458 83.7807 95.2467 83.9726 95.4016 84.1995C95.5565 84.4263 95.662 84.6831 95.7112 84.9534C95.7112 84.9534 95.7112 85.2746 95.7112 85.4352C95.7265 85.755 95.6644 86.0736 95.5302 86.3643C95.396 86.655 95.1937 86.9094 94.9404 87.1053C94.3805 87.5108 93.7047 87.7246 93.0135 87.7153H82.1584C81.467 87.7598 80.7798 87.5798 80.1993 87.2017C79.6801 86.8134 79.3341 86.2368 79.2359 85.5959C79.2123 85.243 79.2123 84.8887 79.2359 84.5359L79.1395 66.2622Z" fill="#FEE500"/>
<path d="M96.2897 66.2624C96.2705 65.5437 96.5228 64.8443 96.9963 64.3033C97.4776 63.866 98.095 63.6077 98.7444 63.5726C99.3938 63.5375 100.035 63.7275 100.561 64.1105C101.017 64.4839 101.324 65.0076 101.428 65.5877C101.444 65.8122 101.444 66.0378 101.428 66.2624V74.1306L109.554 64.7526C109.867 64.4327 110.199 64.1327 110.549 63.8537C110.879 63.6573 111.257 63.5568 111.641 63.5644C112.202 63.5613 112.751 63.7294 113.215 64.0462C113.433 64.1932 113.62 64.3829 113.763 64.6036C113.906 64.8244 114.004 65.0716 114.05 65.3309C114.063 65.3945 114.063 65.4602 114.05 65.5238C114.034 65.5979 114.034 65.6743 114.05 65.7484C114.049 66.0863 113.96 66.4184 113.793 66.712C113.622 67.0229 113.418 67.3134 113.183 67.5788L107.851 73.4241L114.275 83.3799V83.701C114.608 84.1612 114.868 84.6707 115.045 85.2107V85.371C115.082 85.7431 115.029 86.1188 114.889 86.4656C114.749 86.8124 114.527 87.12 114.242 87.3622C113.707 87.7671 113.051 87.9821 112.38 87.9726C111.934 87.991 111.49 87.891 111.095 87.6833C110.667 87.3964 110.315 87.011 110.067 86.5593L104.094 76.9246L101.236 79.9115V85.2746C101.255 85.9932 101.003 86.6927 100.529 87.2336C100.275 87.4817 99.9733 87.6754 99.6419 87.8025C99.3105 87.9295 98.9567 87.9874 98.6021 87.9726C98.0095 87.985 97.4308 87.792 96.9642 87.4265C96.5105 87.0649 96.2026 86.5519 96.097 85.9815C96.0653 85.747 96.0653 85.5091 96.097 85.2746L96.2897 66.2624Z" fill="#FEE500"/>
</svg>
