<svg width="3141" height="968" viewBox="0 0 3141 968" fill="none" xmlns="http://www.w3.org/2000/svg">
<path d="M0 0H188.076L507.873 578.488L827.666 0.000488281H1011.67V950.564H858.223V222.028L577.807 726.507H433.863L153.447 222.028V950.564H0V0Z" fill="#1C2B33"/>
<path d="M1506.63 967.543C1435.56 967.543 1373.09 951.813 1319.23 920.354C1265.36 888.894 1223.38 845.327 1193.28 789.651C1163.18 733.973 1148.13 670.149 1148.13 598.18C1148.13 525.307 1162.84 460.804 1192.26 404.672C1221.69 348.551 1262.54 304.643 1314.82 272.946C1367.1 241.27 1427.19 225.428 1495.09 225.419C1562.53 225.419 1620.58 241.374 1669.25 273.284C1717.9 305.203 1755.35 349.904 1781.61 407.386C1807.86 464.877 1820.99 532.322 1820.99 609.722V651.812H1300.22C1309.73 709.762 1333.15 755.367 1370.5 788.628C1407.84 821.899 1455.03 838.534 1512.06 838.531C1557.78 838.531 1597.16 831.741 1630.2 818.162C1663.24 804.583 1694.25 783.989 1723.22 756.379L1804.7 856.186C1723.67 930.43 1624.31 967.549 1506.63 967.543ZM1618.66 403.648C1586.52 370.836 1544.42 354.427 1492.37 354.422C1441.67 354.422 1399.24 371.172 1365.06 404.672C1330.88 438.169 1309.27 483.207 1300.22 539.788H1673.66C1669.13 481.846 1650.8 436.467 1618.66 403.648Z" fill="#1C2B33"/>
<path d="M2007.05 368.009H1865.82V242.397H2007.05V34.6328H2155.06V242.397H2369.62V368.009H2155.06V686.445C2155.06 739.401 2164.12 777.196 2182.22 799.831C2200.32 822.472 2231.32 833.788 2275.24 833.779C2294.7 833.779 2311.22 832.987 2324.81 831.403C2338.39 829.825 2353.32 827.675 2369.62 824.952V949.203C2351.02 954.581 2332.08 958.667 2312.92 961.429C2291 964.655 2268.88 966.243 2246.72 966.181C2086.93 966.181 2007.04 878.821 2007.05 704.1V368.009Z" fill="#1C2B33"/>
<path d="M3140.95 950.565H2995.65V851.435C2969.85 888.557 2937.03 917.186 2897.2 937.324C2857.36 957.459 2812.1 967.532 2761.4 967.544C2698.94 967.544 2643.6 951.586 2595.39 919.67C2547.19 887.759 2509.28 843.854 2481.67 787.953C2454.05 732.049 2440.25 668.113 2440.25 596.144C2440.25 523.721 2454.28 459.669 2482.35 403.988C2510.41 348.318 2549.22 304.638 2598.79 272.947C2648.35 241.271 2705.27 225.429 2769.55 225.42C2817.98 225.42 2861.44 234.814 2899.91 253.602C2937.87 271.962 2970.74 299.355 2995.65 333.378V242.398H3140.95V950.565ZM2992.93 490.223C2977.08 449.936 2952.07 418.136 2917.91 394.822C2883.72 371.513 2844.23 359.859 2799.43 359.859C2736.05 359.859 2685.58 381.133 2648.02 423.68C2610.44 466.23 2591.65 523.717 2591.66 596.143C2591.66 669.025 2609.77 726.739 2645.98 769.283C2682.19 811.833 2731.3 833.107 2793.32 833.104C2839.03 833.104 2879.77 821.334 2915.53 797.794C2951.28 774.268 2977.08 742.584 2992.94 702.739L2992.93 490.223Z" fill="#1C2B33"/>
</svg>
