<svg width="15" height="15" viewBox="0 0 15 15" fill="none" xmlns="http://www.w3.org/2000/svg">
<path d="M6.93649 2.37731H3.38244C2.20472 2.37731 1.25 3.332 1.25 4.50967V11.6176C1.25 12.7953 2.20472 13.75 3.38244 13.75H10.4906C11.6683 13.75 12.623 12.7953 12.623 11.6176L12.623 8.06365M4.80406 10.196L7.39022 9.67491C7.52751 9.64725 7.65357 9.57964 7.75258 9.48059L13.5419 3.68823C13.8195 3.41051 13.8193 2.96035 13.5415 2.68287L12.3151 1.4579C12.0374 1.18053 11.5875 1.18072 11.31 1.45832L5.52006 7.25129C5.42125 7.35015 5.35378 7.47595 5.32609 7.61295L4.80406 10.196Z" stroke="#212121" stroke-width="1.5" stroke-linecap="round" stroke-linejoin="round"/>
</svg>
