<svg width="96" height="96" viewBox="0 0 96 96" fill="none" xmlns="http://www.w3.org/2000/svg">
<path d="M48.0005 31.999V47.999M48.0005 63.999H48.0405M11.9687 65.3668C12.5569 66.8504 12.6878 68.4761 12.3447 70.0348L8.08472 83.1948C7.94745 83.8622 7.98294 84.5535 8.18782 85.2034C8.3927 85.8532 8.76017 86.4399 9.25539 86.9079C9.7506 87.3758 10.3572 87.7096 11.0175 87.8774C11.6779 88.0452 12.3702 88.0415 13.0287 87.8668L26.6807 83.8748C28.1516 83.583 29.6748 83.7105 31.0767 84.2428C39.6183 88.2317 49.2942 89.0756 58.3973 86.6257C67.5005 84.1757 75.4458 78.5894 80.8315 70.8522C86.2172 63.1151 88.6972 53.7244 87.8339 44.337C86.9706 34.9495 82.8195 26.1686 76.113 19.5436C69.4065 12.9185 60.5755 8.87493 51.1782 8.12636C41.781 7.37779 32.4213 9.9723 24.7505 15.4521C17.0797 20.932 11.5908 28.9449 9.25229 38.0773C6.91374 47.2097 7.87579 56.8746 11.9687 65.3668Z" stroke="currentColor" stroke-width="5" stroke-linecap="round" stroke-linejoin="round"/>
</svg>
