<svg width="14" height="13" viewBox="0 0 14 13" fill="none" xmlns="http://www.w3.org/2000/svg">
<path d="M9.26588 11.4635L9.26606 9.45491C9.26616 8.34542 8.36677 7.44595 7.25728 7.44595H2.75901C1.64968 7.44595 0.750351 8.34517 0.750226 9.45451L0.75 11.4635M12.7498 11.4636L12.75 9.45502C12.7501 8.34553 11.8507 7.44606 10.7412 7.44606M8.87896 1.14463C9.37227 1.51065 9.69197 2.09744 9.69197 2.75889C9.69197 3.42035 9.37227 4.00713 8.87896 4.37316M7.05862 2.75878C7.05862 3.86821 6.15926 4.76757 5.04984 4.76757C3.94042 4.76757 3.04105 3.86821 3.04105 2.75878C3.04105 1.64936 3.94042 0.75 5.04984 0.75C6.15926 0.75 7.05862 1.64936 7.05862 2.75878Z" stroke="currentColor" stroke-width="1.5" stroke-linecap="round" stroke-linejoin="round"/>
</svg>
