<svg width="16" height="10" viewBox="0 0 16 10" fill="none" xmlns="http://www.w3.org/2000/svg">
<path fill-rule="evenodd" clip-rule="evenodd" d="M8.62228 1.99323L15.4968 0L13.7857 6.95015L11.6512 4.90097L8.20798 8.48764C8.09109 8.6094 7.9296 8.67823 7.76081 8.67823C7.59203 8.67823 7.43054 8.6094 7.31365 8.48764L4.78542 5.85407L1.06704 9.72738C0.829957 9.97435 0.437557 9.98236 0.190592 9.74527C-0.0563724 9.50818 -0.0643805 9.11578 0.172705 8.86882L4.33825 4.5297C4.45515 4.40794 4.61663 4.33911 4.78542 4.33911C4.95421 4.33911 5.1157 4.40794 5.23259 4.5297L7.76081 7.16327L10.7568 4.04241L8.62228 1.99323Z" fill="currentColor"/>
</svg>
