<svg width="25" height="25" viewBox="0 0 25 25" fill="none" xmlns="http://www.w3.org/2000/svg">
<path d="M10.8386 5.02169C11.0521 4.157 12.2813 4.157 12.4948 5.02169C13.406 8.71264 16.2879 11.5945 19.9789 12.5056C20.8436 12.7191 20.8436 13.9483 19.9789 14.1618C16.2879 15.073 13.406 17.9548 12.4948 21.6457C12.2813 22.5104 11.0521 22.5104 10.8386 21.6457C9.92743 17.9548 7.04554 15.073 3.35458 14.1618C2.48986 13.9483 2.48986 12.7191 3.35458 12.5056C7.04554 11.5945 9.92743 8.71264 10.8386 5.02169Z" fill="currentColor"/>
<path d="M19.9418 1.35768C20.0282 1.00769 20.5257 1.00769 20.6121 1.35768C20.9809 2.85164 22.1474 4.01809 23.6414 4.38688C23.9914 4.47329 23.9914 4.97085 23.6414 5.05725C22.1474 5.42605 20.9809 6.5925 20.6121 8.08646C20.5257 8.43645 20.0282 8.43645 19.9418 8.08646C19.5729 6.5925 18.4065 5.42605 16.9125 5.05725C16.5625 4.97085 16.5625 4.47329 16.9125 4.38688C18.4065 4.01809 19.5729 2.85164 19.9418 1.35768Z" fill="currentColor"/>
</svg>
