<svg width="177" height="30" viewBox="0 0 177 30" fill="none" xmlns="http://www.w3.org/2000/svg">
<path d="M12.1393 6.62428C12.3784 5.65583 13.7551 5.65583 13.9942 6.62428C15.0148 10.7581 18.2425 13.9858 22.3763 15.0063C23.3448 15.2453 23.3448 16.6221 22.3763 16.8612C18.2425 17.8817 15.0148 21.1093 13.9942 25.2432C13.7551 26.2116 12.3784 26.2116 12.1393 25.2432C11.1187 21.1093 7.891 17.8817 3.75713 16.8612C2.78865 16.6221 2.78865 15.2453 3.75713 15.0063C7.891 13.9858 11.1187 10.7581 12.1393 6.62428Z" fill="#3AAAFF"/>
<path d="M22.3354 2.5206C22.4322 2.12861 22.9894 2.12861 23.0862 2.5206C23.4993 4.19383 24.8057 5.50026 26.479 5.91331C26.871 6.01008 26.871 6.56735 26.479 6.66412C24.8057 7.07717 23.4993 8.3836 23.0862 10.0568C22.9894 10.4488 22.4322 10.4488 22.3354 10.0568C21.9223 8.3836 20.6159 7.07717 18.9426 6.66412C18.5506 6.56735 18.5506 6.01008 18.9426 5.91331C20.6159 5.50026 21.9223 4.19383 22.3354 2.5206Z" fill="#3AAAFF"/>
<path d="M35.4512 23L40.8223 7.44531H44.9688L50.3506 23H46.8809L42.96 10.958H42.8311L38.8994 23H35.4512ZM47.0312 16.8877V19.4121H38.7275V16.8877H47.0312ZM55.335 23H52.1123V7.44531H55.335V23ZM69.042 20.8623H66.3242V15.373H69.042V20.8623ZM76.2393 20.8623H73.4785V15.373H76.2393V20.8623ZM80.2139 22.6885H62.3389V20.4434H80.2139V22.6885ZM71.2441 6.37109C72.6549 6.37109 73.9154 6.58952 75.0254 7.02637C76.1426 7.46322 77.0163 8.0791 77.6465 8.87402C78.2839 9.66895 78.6025 10.582 78.6025 11.6133C78.6025 12.6517 78.2874 13.5684 77.6572 14.3633C77.027 15.151 76.1533 15.7633 75.0361 16.2002C73.9261 16.6299 72.6621 16.8483 71.2441 16.8555C69.8333 16.8483 68.5693 16.6299 67.4521 16.2002C66.3421 15.7633 65.472 15.151 64.8418 14.3633C64.2116 13.5684 63.8965 12.6517 63.8965 11.6133C63.8965 10.582 64.2116 9.66895 64.8418 8.87402C65.472 8.0791 66.3457 7.46322 67.4629 7.02637C68.5801 6.58952 69.8405 6.37109 71.2441 6.37109ZM71.2441 8.54102C70.3132 8.53385 69.5003 8.65202 68.8057 8.89551C68.111 9.139 67.5703 9.49349 67.1836 9.95898C66.7969 10.4173 66.6035 10.9688 66.6035 11.6133C66.6035 12.2507 66.7969 12.8057 67.1836 13.2783C67.5703 13.7438 68.111 14.1055 68.8057 14.3633C69.5075 14.6139 70.3203 14.7393 71.2441 14.7393C72.1608 14.7393 72.9701 14.6139 73.6719 14.3633C74.3737 14.1055 74.918 13.7438 75.3047 13.2783C75.6986 12.8057 75.8955 12.2507 75.8955 11.6133C75.8955 10.9688 75.7021 10.4173 75.3154 9.95898C74.9287 9.50065 74.3844 9.14974 73.6826 8.90625C72.988 8.6556 72.1751 8.53385 71.2441 8.54102ZM99.3994 10.2275H96.0049V8.01465H99.3994V10.2275ZM99.3994 14.4922H96.0049V12.2148H99.3994V14.4922ZM96.8535 16.9521H94.1143V5.4043H96.8535V16.9521ZM96.8535 24.9766H94.1143V19.96H83.6943V17.7363H96.8535V24.9766ZM86.8311 6.5C87.8337 6.49284 88.7396 6.69336 89.5488 7.10156C90.3652 7.50977 91.0062 8.07552 91.4717 8.79883C91.9443 9.52214 92.1807 10.3421 92.1807 11.2588C92.1807 12.1683 91.9479 12.9919 91.4824 13.7295C91.0169 14.46 90.376 15.0329 89.5596 15.4482C88.7503 15.8564 87.8408 16.0605 86.8311 16.0605C85.8213 16.0605 84.9118 15.8564 84.1025 15.4482C83.2933 15.0329 82.6523 14.46 82.1797 13.7295C81.707 12.9919 81.4707 12.1683 81.4707 11.2588C81.4707 10.3421 81.707 9.52572 82.1797 8.80957C82.6523 8.08626 83.2969 7.52051 84.1133 7.1123C84.9297 6.69694 85.8356 6.49284 86.8311 6.5ZM86.8311 8.82031C86.3226 8.82031 85.8643 8.91699 85.4561 9.11035C85.055 9.30371 84.7399 9.58301 84.5107 9.94824C84.2816 10.3135 84.167 10.7503 84.167 11.2588C84.167 11.7673 84.2816 12.2077 84.5107 12.5801C84.7399 12.9453 85.055 13.2282 85.4561 13.4287C85.8643 13.6221 86.3226 13.7188 86.8311 13.7188C87.3395 13.7188 87.7943 13.6221 88.1953 13.4287C88.6035 13.2282 88.9222 12.9453 89.1514 12.5801C89.3877 12.2077 89.5059 11.7673 89.5059 11.2588C89.5059 10.7503 89.3877 10.3135 89.1514 9.94824C88.9222 9.58301 88.6071 9.30371 88.2061 9.11035C87.805 8.91699 87.3467 8.82031 86.8311 8.82031ZM115.781 24.9766H113.074V5.4043H115.781V24.9766ZM118.682 15.3301H115.18V13.085H118.682V15.3301ZM111.742 10.5391H100.259V8.33691H111.742V10.5391ZM106.049 11.624C107.001 11.624 107.857 11.8245 108.616 12.2256C109.375 12.6195 109.97 13.1709 110.399 13.8799C110.836 14.5889 111.055 15.391 111.055 16.2861C111.055 17.1813 110.836 17.9834 110.399 18.6924C109.97 19.4014 109.375 19.9564 108.616 20.3574C107.857 20.7513 107.001 20.9482 106.049 20.9482C105.096 20.9482 104.241 20.7513 103.481 20.3574C102.722 19.9564 102.128 19.4014 101.698 18.6924C101.269 17.9834 101.054 17.1813 101.054 16.2861C101.054 15.391 101.269 14.5889 101.698 13.8799C102.128 13.1709 102.722 12.6195 103.481 12.2256C104.241 11.8245 105.096 11.624 106.049 11.624ZM106.049 13.8584C105.598 13.8584 105.189 13.9587 104.824 14.1592C104.466 14.3525 104.183 14.6354 103.976 15.0078C103.775 15.373 103.675 15.7992 103.675 16.2861C103.675 16.7803 103.775 17.21 103.976 17.5752C104.183 17.9404 104.466 18.2233 104.824 18.4238C105.189 18.6172 105.598 18.7139 106.049 18.7139C106.514 18.7139 106.926 18.6172 107.284 18.4238C107.642 18.2233 107.918 17.9404 108.111 17.5752C108.312 17.21 108.412 16.7803 108.412 16.2861C108.412 15.7992 108.312 15.373 108.111 15.0078C107.918 14.6354 107.642 14.3525 107.284 14.1592C106.926 13.9587 106.514 13.8584 106.049 13.8584ZM107.413 9.1748H104.685V5.71582H107.413V9.1748ZM135.805 24.9766H133.022V5.4043H135.805V24.9766ZM129.95 7.4668C129.95 9.5651 129.667 11.4701 129.102 13.1816C128.543 14.8861 127.594 16.4544 126.255 17.8867C124.916 19.3118 123.122 20.5579 120.873 21.625L119.434 19.4336C121.317 18.5456 122.828 17.5465 123.967 16.4365C125.105 15.3265 125.933 14.0804 126.448 12.6982C126.964 11.3161 127.222 9.7334 127.222 7.9502V7.4668H129.95ZM128.479 9.62598H120.476V7.4668H128.479V9.62598Z" fill="url(#paint0_linear_748_620)"/>
<path d="M147.5 22L154.5 15L147.5 8" stroke="#5F8AFE" stroke-width="2" stroke-linecap="round" stroke-linejoin="round"/>
<path d="M155.5 22L162.5 15L155.5 8" stroke="#5F8AFE" stroke-width="2" stroke-linecap="round" stroke-linejoin="round"/>
<defs>
<linearGradient id="paint0_linear_748_620" x1="13.9318" y1="14.2353" x2="138" y2="14.2353" gradientUnits="userSpaceOnUse">
<stop stop-color="#31B1FF"/>
<stop offset="0.793269" stop-color="#5F8AFE"/>
</linearGradient>
</defs>
</svg>
