<svg width="322" height="326" viewBox="0 0 322 326" fill="none" xmlns="http://www.w3.org/2000/svg">
<g filter="url(#filter0_d_629_1632)">
<rect x="8" y="8" width="305.5" height="310" rx="30" fill="white" shape-rendering="crispEdges"/>
<path d="M174.59 222.87C167.991 222.196 162.679 220.179 157.619 216.425C151.795 212.105 148.045 205.543 147.119 198.057C146.919 196.443 146.949 192.841 147.177 190.887C147.507 188.067 147.789 187.04 149.51 182.384C149.795 181.611 149.798 181.561 149.582 181.23C149.287 180.781 148.79 180.657 148.375 180.929C148.199 181.045 147.624 181.72 147.099 182.43C143.369 187.471 140.191 191.006 132.654 198.494C128.249 202.87 127.011 203.932 123.36 206.469C116.512 211.227 109.605 214.221 102.658 215.444C100.725 215.784 100.275 215.815 97.3104 215.813C93.8667 215.811 93.0605 215.719 90.2433 215.01C87.618 214.348 84.8745 213.133 82.449 211.555C78.998 209.31 75.5823 205.692 73.2106 201.77C70.1055 196.633 68.0253 190.086 67.2381 182.968C66.9576 180.433 66.9149 173.446 67.1638 170.906C67.9547 162.85 69.9747 155.135 73.2317 147.727C80.0204 132.286 91.861 120.011 105.638 114.132C112.586 111.167 119.537 110.587 124.523 112.557C128.573 114.157 131.367 117.964 132.283 123.131C132.457 124.113 132.508 125.167 132.507 127.709C132.504 130.686 132.468 131.234 132.137 133.257C131.083 139.71 128.245 148.236 124.09 157.432C121.9 162.28 121.855 162.429 122.471 162.833C122.915 163.124 123.312 163.1 123.877 162.748C124.139 162.585 126.476 160.29 129.07 157.648C133.779 152.854 136.408 150.049 144.138 141.575C149.841 135.323 156.713 128.479 161.056 124.723C168.62 118.182 176.228 113.94 182.514 112.759C184.252 112.432 188.153 112.371 189.788 112.644C195.844 113.657 199.422 117.561 200.69 124.539C200.98 126.133 201.093 131.067 200.89 133.288C200.496 137.609 199.449 142.123 197.441 148.153C195.904 152.769 194.645 155.867 191.779 162.095C191.334 163.061 190.97 163.956 190.97 164.085C190.97 164.372 191.397 164.846 191.762 164.961C192.354 165.15 192.871 164.782 199.294 159.606C201.146 158.113 203.88 155.911 205.369 154.712C219.386 143.425 229.103 137.607 237.668 135.37C241.84 134.28 246.653 134.082 249.887 134.866C252.021 135.384 253.642 136.256 255.08 137.663C256.743 139.288 257.556 141.155 257.823 143.964C258.479 150.866 255.199 161.069 248.398 173.284C245.056 179.288 239.779 187.161 237.291 189.857C236.845 190.341 235.886 191.447 235.162 192.315C234.437 193.182 233.419 194.338 232.899 194.883C232.379 195.428 231.863 196.052 231.752 196.27C231.477 196.81 225.929 202.257 223.732 204.145C217.491 209.504 212.285 212.955 205.303 216.361C197.833 220.005 190.768 222.08 183.323 222.819C181.129 223.036 176.481 223.064 174.59 222.87Z" fill="url(#paint0_radial_629_1632)" stroke="white" stroke-width="0.5"/>
<path d="M243.617 132.648C243.183 132.585 242.44 132.405 241.965 132.249C237.952 130.929 235.069 127.76 233.869 123.353C233.62 122.436 233.58 121.946 233.577 119.717C233.573 117.46 233.61 116.994 233.875 115.955C235.423 109.87 240.503 104.806 246.562 103.307C248.124 102.921 251.061 102.895 252.592 103.253C258.099 104.543 261.59 108.554 262.178 114.267C262.574 118.112 261.585 121.864 259.256 125.359C258.429 126.601 255.96 129.084 254.775 129.866C253.675 130.592 251.554 131.623 250.284 132.049C248.392 132.683 245.586 132.935 243.617 132.648Z" fill="url(#paint1_radial_629_1632)" stroke="white" stroke-width="0.5"/>
</g>
<defs>
<filter id="filter0_d_629_1632" x="0" y="0" width="321.5" height="326" filterUnits="userSpaceOnUse" color-interpolation-filters="sRGB">
<feFlood flood-opacity="0" result="BackgroundImageFix"/>
<feColorMatrix in="SourceAlpha" type="matrix" values="0 0 0 0 0 0 0 0 0 0 0 0 0 0 0 0 0 0 127 0" result="hardAlpha"/>
<feOffset/>
<feGaussianBlur stdDeviation="4"/>
<feComposite in2="hardAlpha" operator="out"/>
<feColorMatrix type="matrix" values="0 0 0 0 0.218994 0 0 0 0 0.218994 0 0 0 0 0.218994 0 0 0 0.2 0"/>
<feBlend mode="normal" in2="BackgroundImageFix" result="effect1_dropShadow_629_1632"/>
<feBlend mode="normal" in="SourceGraphic" in2="effect1_dropShadow_629_1632" result="shape"/>
</filter>
<radialGradient id="paint0_radial_629_1632" cx="0" cy="0" r="1" gradientTransform="matrix(-142.749 76.2326 -59.6647 -101.081 241.05 126.293)" gradientUnits="userSpaceOnUse">
<stop stop-color="#5E89FE"/>
<stop offset="1" stop-color="#2DB5FF"/>
</radialGradient>
<radialGradient id="paint1_radial_629_1632" cx="0" cy="0" r="1" gradientTransform="matrix(-21.45 20.3339 -8.96544 -26.9618 259.73 106.971)" gradientUnits="userSpaceOnUse">
<stop stop-color="#5E89FE"/>
<stop offset="1" stop-color="#2DB5FF"/>
</radialGradient>
</defs>
</svg>
