<svg width="196" height="121" viewBox="0 0 196 121" fill="none" xmlns="http://www.w3.org/2000/svg">
<path d="M107.84 120.12C101.241 119.446 95.9292 117.429 90.8689 113.675C85.0451 109.355 81.2946 102.793 80.3687 95.3066C80.1694 93.6926 80.1989 90.0908 80.4272 88.1367C80.7573 85.3168 81.0389 84.2896 82.7599 79.6338C83.0452 78.8613 83.0483 78.8107 82.8316 78.4801C82.5374 78.0308 82.0402 77.9069 81.6252 78.179C81.4486 78.295 80.8744 78.9699 80.3492 79.6796C76.6192 84.7215 73.4408 88.2558 65.9039 95.7437C61.499 100.12 60.2615 101.182 56.6095 103.719C49.7618 108.477 42.8549 111.471 35.908 112.694C33.9745 113.034 33.5247 113.065 30.5604 113.063C27.1167 113.061 26.3105 112.969 23.4933 112.26C20.868 111.598 18.1245 110.383 15.699 108.805C12.248 106.56 8.83229 102.942 6.4606 99.0197C3.35545 93.8835 1.27534 87.3357 0.488112 80.218C0.2076 77.6834 0.164889 70.6959 0.413764 68.1565C1.20468 60.1002 3.22469 52.3845 6.48169 44.9768C13.2704 29.536 25.111 17.2615 38.8877 11.3823C45.8362 8.41741 52.7873 7.83741 57.7732 9.80732C61.8227 11.4066 64.6168 15.214 65.5327 20.3808C65.7072 21.3626 65.7583 22.4172 65.7568 24.9592C65.7541 27.9357 65.7177 28.4835 65.3871 30.5072C64.3326 36.9601 61.4948 45.4862 57.3403 54.6819C55.15 59.5302 55.1052 59.6794 55.7211 60.0828C56.165 60.3739 56.5621 60.3501 57.1268 59.9984C57.3889 59.835 59.7257 57.5397 62.3205 54.8975C67.0285 50.1035 69.6576 47.2995 77.388 38.825C83.091 32.5731 89.9625 25.7285 94.3057 21.9727C101.87 15.4323 109.478 11.1904 115.764 10.0087C117.502 9.68236 121.403 9.62067 123.038 9.89433C129.094 10.9067 132.672 14.8107 133.94 21.7887C134.23 23.3826 134.343 28.3169 134.14 30.5378C133.746 34.8594 132.699 39.3729 130.691 45.4034C129.154 50.0186 127.895 53.1169 125.029 59.3451C124.584 60.3111 124.22 61.2064 124.22 61.3346C124.22 61.6225 124.647 62.096 125.012 62.2114C125.604 62.3997 126.121 62.0322 132.544 56.8559C134.396 55.3631 137.13 53.1607 138.619 51.9617C152.636 40.6753 162.353 34.8567 170.918 32.6195C175.09 31.5301 179.903 31.3319 183.137 32.1165C185.271 32.6343 186.892 33.5064 188.33 34.9126C189.993 36.5377 190.806 38.4053 191.073 41.2141C191.729 48.1162 188.449 58.3191 181.648 70.534C178.306 76.5376 173.029 84.4114 170.541 87.1074C170.095 87.5915 169.136 88.6972 168.412 89.5645C167.687 90.4319 166.669 91.5877 166.149 92.1329C165.629 92.6776 165.113 93.3019 165.002 93.5197C164.727 94.0601 159.179 99.5074 156.982 101.395C150.741 106.754 145.535 110.205 138.553 113.611C131.083 117.255 124.018 119.33 116.573 120.069C114.379 120.286 109.731 120.314 107.84 120.12Z" fill="url(#paint0_radial_629_1624)" stroke="white" stroke-width="0.5"/>
<path d="M176.867 29.8983C176.433 29.835 175.69 29.6552 175.215 29.4992C171.202 28.1789 168.319 25.0104 167.119 20.6029C166.87 19.686 166.83 19.1961 166.827 16.9673C166.823 14.7095 166.86 14.2445 167.125 13.2047C168.673 7.1204 173.753 2.05642 179.812 0.557364C181.374 0.170869 184.311 0.144507 185.842 0.503056C191.349 1.79331 194.84 5.80379 195.428 11.5169C195.824 15.3623 194.835 19.1144 192.506 22.6092C191.679 23.851 189.21 26.3339 188.025 27.1159C186.925 27.8419 184.804 28.8727 183.534 29.2988C181.642 29.9326 178.836 30.1851 176.867 29.8983Z" fill="url(#paint1_radial_629_1624)" stroke="white" stroke-width="0.5"/>
<defs>
<radialGradient id="paint0_radial_629_1624" cx="0" cy="0" r="1" gradientTransform="matrix(-142.749 76.2326 -59.6647 -101.081 174.3 23.5429)" gradientUnits="userSpaceOnUse">
<stop stop-color="#5E89FE"/>
<stop offset="1" stop-color="#2DB5FF"/>
</radialGradient>
<radialGradient id="paint1_radial_629_1624" cx="0" cy="0" r="1" gradientTransform="matrix(-21.45 20.3339 -8.96544 -26.9618 192.98 4.22078)" gradientUnits="userSpaceOnUse">
<stop stop-color="#5E89FE"/>
<stop offset="1" stop-color="#2DB5FF"/>
</radialGradient>
</defs>
</svg>
