<svg width="31" height="31" viewBox="0 0 31 31" fill="none" xmlns="http://www.w3.org/2000/svg">
<path d="M17.7435 5.07031C18.2009 5.07031 18.6497 5.19402 19.0425 5.42835C19.4353 5.66268 19.7574 5.9989 19.9746 6.40138L20.5907 7.54229C20.808 7.94476 21.13 8.28098 21.5228 8.51531C21.9156 8.74964 22.3645 8.87336 22.8218 8.87335H25.3534C26.0258 8.87335 26.6707 9.14047 27.1461 9.61594C27.6216 10.0914 27.8887 10.7363 27.8887 11.4087V22.8178C27.8887 23.4902 27.6216 24.1351 27.1461 24.6106C26.6707 25.0861 26.0258 25.3532 25.3534 25.3532H5.07051C4.3981 25.3532 3.75322 25.0861 3.27775 24.6106C2.80227 24.1351 2.53516 23.4902 2.53516 22.8178V11.4087C2.53516 10.7363 2.80227 10.0914 3.27775 9.61594C3.75322 9.14047 4.3981 8.87335 5.07051 8.87335H7.60207C8.05897 8.87337 8.50738 8.74993 8.89989 8.51607C9.29241 8.28222 9.61443 7.94664 9.83192 7.54482L10.4518 6.39884C10.6693 5.99702 10.9913 5.66144 11.3838 5.42759C11.7763 5.19373 12.2248 5.07029 12.6817 5.07031H17.7435Z" stroke="#C3C3C3" stroke-width="1.5" stroke-linecap="round" stroke-linejoin="round"/>
<path d="M15.2119 20.2825C17.3123 20.2825 19.015 18.5798 19.015 16.4794C19.015 14.3791 17.3123 12.6764 15.2119 12.6764C13.1116 12.6764 11.4089 14.3791 11.4089 16.4794C11.4089 18.5798 13.1116 20.2825 15.2119 20.2825Z" stroke="currentColor" stroke-width="1.5" stroke-linecap="round" stroke-linejoin="round"/>
</svg>
