<svg width="16" height="15" viewBox="0 0 16 15" fill="none" xmlns="http://www.w3.org/2000/svg">
<path d="M3.69832 5.98578L1.83711 7.84699C1.14199 8.5421 0.742262 9.4879 0.749566 10.4819C0.756871 11.4759 1.14786 12.4275 1.87595 13.1331C2.58152 13.8612 3.5333 14.2522 4.52715 14.2595C5.54367 14.267 6.46709 13.8898 7.16224 13.1946L9.02345 11.3334M11.4008 9.00154L13.262 7.14033C13.9571 6.44522 14.3569 5.49942 14.3496 4.50541C14.3422 3.51139 13.9513 2.55982 13.2232 1.85421C12.5178 1.14881 11.5661 0.7578 10.5721 0.750495C9.57813 0.74319 8.6322 1.12023 7.93704 1.81537L6.07583 3.67658M4.72715 10.2663L10.3108 4.68266" stroke="currentColor" stroke-width="1.5" stroke-linecap="round" stroke-linejoin="round"/>
</svg>
