<svg width="19" height="17" viewBox="0 0 19 17" fill="none" xmlns="http://www.w3.org/2000/svg">
<path d="M9.25 12.75C11.183 12.75 12.75 11.183 12.75 9.25C12.75 7.317 11.183 5.75 9.25 5.75C7.317 5.75 5.75 7.317 5.75 9.25C5.75 11.183 7.317 12.75 9.25 12.75Z" fill="currentColor"/>
<mask id="mask0_1017_889" style="mask-type:alpha" maskUnits="userSpaceOnUse" x="0" y="2" width="19" height="16">
<path d="M9.25 16.75C13.9444 16.75 17.75 13.616 17.75 9.75C17.75 5.88401 13.9444 2.75 9.25 2.75C4.55558 2.75 0.75 5.88401 0.75 9.75C0.75 13.616 4.55558 16.75 9.25 16.75Z" stroke="black" stroke-width="1.5" stroke-linejoin="round"/>
</mask>
<g mask="url(#mask0_1017_889)">
<path d="M20.75 1.75H-2.25V8.75H20.75V1.75Z" fill="currentColor"/>
</g>
</svg>
