<svg width="15" height="15" viewBox="0 0 15 15" fill="none" xmlns="http://www.w3.org/2000/svg">
<path d="M6.24991 8.12498C6.51832 8.48381 6.86076 8.78072 7.254 8.99557C7.64725 9.21041 8.0821 9.33818 8.52906 9.37019C8.97603 9.4022 9.42465 9.33771 9.8445 9.18109C10.2643 9.02448 10.6456 8.7794 10.9624 8.46248L12.8374 6.58748C13.4067 5.9981 13.7216 5.20871 13.7145 4.38935C13.7074 3.56998 13.3787 2.7862 12.7993 2.2068C12.2199 1.6274 11.4362 1.29874 10.6168 1.29162C9.79742 1.2845 9.00804 1.59948 8.41866 2.16873L7.34366 3.23748M8.74988 6.87499C8.48147 6.51616 8.13903 6.21925 7.74579 6.0044C7.35254 5.78955 6.91769 5.66179 6.47072 5.62978C6.02376 5.59777 5.57514 5.66226 5.15529 5.81887C4.73544 5.97549 4.35418 6.22057 4.03738 6.53749L2.16238 8.41249C1.59314 9.00187 1.27815 9.79125 1.28527 10.6106C1.29239 11.43 1.62105 12.2138 2.20045 12.7932C2.77985 13.3726 3.56364 13.7012 4.383 13.7083C5.20237 13.7155 5.99175 13.4005 6.58113 12.8312L7.64988 11.7625" stroke="currentColor" stroke-width="1.5" stroke-linecap="round" stroke-linejoin="round"/>
</svg>
