<svg width="23" height="20" viewBox="0 0 23 20" fill="none" xmlns="http://www.w3.org/2000/svg">
<path d="M4.28368 18.7942L14.2958 10.2162L19.0074 14.5052M4.28368 18.7942H16.0626C18.0142 18.7942 19.5963 17.354 19.5963 15.5774V10.2162M4.28368 18.7942C2.33208 18.7942 0.75 17.354 0.75 15.5774V4.855C0.75 3.07845 2.33208 1.63828 4.28368 1.63828H11.94M18.4184 6.81552L18.4184 3.78276M18.4184 3.78276L18.4184 0.75M18.4184 3.78276L15.0868 3.78276M18.4184 3.78276L21.75 3.78276M7.81736 6.46337C7.81736 7.35165 7.02632 8.07173 6.05052 8.07173C5.07472 8.07173 4.28368 7.35165 4.28368 6.46337C4.28368 5.57509 5.07472 4.855 6.05052 4.855C7.02632 4.855 7.81736 5.57509 7.81736 6.46337Z" stroke="currentColor" stroke-width="1.5" stroke-linecap="round" stroke-linejoin="round"/>
</svg>
