<svg width="27" height="27" viewBox="0 0 27 27" fill="none" xmlns="http://www.w3.org/2000/svg">
<path d="M6.07422 21.5992C6.59303 21.0182 9.0229 18.3442 9.73497 18.3442H17.2639C18.2958 18.3442 20.4022 20.5607 20.9242 21.342M24.2992 13.4992C24.2992 19.4639 19.4639 24.2992 13.4992 24.2992C7.53454 24.2992 2.69922 19.4639 2.69922 13.4992C2.69922 7.53454 7.53454 2.69922 13.4992 2.69922C19.4639 2.69922 24.2992 7.53454 24.2992 13.4992ZM17.3679 9.81817C17.3679 7.75772 15.6285 6.07422 13.4995 6.07422C11.3706 6.07422 9.63117 7.75772 9.63117 9.81817C9.63117 11.8786 11.3706 13.5621 13.4995 13.5621C15.6285 13.5621 17.3679 11.8786 17.3679 9.81817Z" stroke="currentColor" stroke-width="2"/>
</svg>
