<svg width="24" height="24" viewBox="0 0 24 24" fill="none" xmlns="http://www.w3.org/2000/svg">
<path d="M18.6654 10.3327C18.6654 14.4935 14.0495 18.8268 12.4995 20.1652C12.3551 20.2738 12.1794 20.3325 11.9987 20.3325C11.818 20.3325 11.6423 20.2738 11.4979 20.1652C9.94786 18.8268 5.33203 14.4935 5.33203 10.3327C5.33203 8.56457 6.03441 6.86888 7.28465 5.61864C8.5349 4.36839 10.2306 3.66602 11.9987 3.66602C13.7668 3.66602 15.4625 4.36839 16.7127 5.61864C17.963 6.86888 18.6654 8.56457 18.6654 10.3327Z" stroke="currentColor" stroke-width="1.5" stroke-linecap="round" stroke-linejoin="round"/>
<path d="M11.9987 12.8327C13.3794 12.8327 14.4987 11.7134 14.4987 10.3327C14.4987 8.95197 13.3794 7.83268 11.9987 7.83268C10.618 7.83268 9.4987 8.95197 9.4987 10.3327C9.4987 11.7134 10.618 12.8327 11.9987 12.8327Z" stroke="currentColor" stroke-width="1.5" stroke-linecap="round" stroke-linejoin="round"/>
</svg>
