<svg width="24" height="24" viewBox="0 0 24 24" fill="none" xmlns="http://www.w3.org/2000/svg">
<path d="M10.058 5.44712C10.1039 4.96407 10.3282 4.51549 10.6872 4.18902C11.0462 3.86255 11.514 3.68164 11.9992 3.68164C12.4844 3.68164 12.9522 3.86255 13.3112 4.18902C13.6702 4.51549 13.8945 4.96407 13.9405 5.44712C13.9681 5.75916 14.0704 6.05997 14.2389 6.32407C14.4074 6.58817 14.637 6.80779 14.9083 6.96435C15.1797 7.12091 15.4847 7.20979 15.7977 7.22347C16.1107 7.23715 16.4223 7.17523 16.7063 7.04295C17.1472 6.84277 17.6469 6.8138 18.108 6.96169C18.5691 7.10958 18.9586 7.42374 19.2009 7.84304C19.4431 8.26233 19.5207 8.75676 19.4185 9.23009C19.3163 9.70343 19.0416 10.1218 18.648 10.4038C18.3916 10.5837 18.1823 10.8226 18.0379 11.1005C17.8934 11.3783 17.818 11.6869 17.818 12C17.818 12.3132 17.8934 12.6217 18.0379 12.8996C18.1823 13.1774 18.3916 13.4164 18.648 13.5963C19.0416 13.8783 19.3163 14.2966 19.4185 14.77C19.5207 15.2433 19.4431 15.7377 19.2009 16.157C18.9586 16.5763 18.5691 16.8905 18.108 17.0384C17.6469 17.1863 17.1472 17.1573 16.7063 16.9571C16.4223 16.8248 16.1107 16.7629 15.7977 16.7766C15.4847 16.7903 15.1797 16.8792 14.9083 17.0357C14.637 17.1923 14.4074 17.4119 14.2389 17.676C14.0704 17.9401 13.9681 18.2409 13.9405 18.553C13.8945 19.036 13.6702 19.4846 13.3112 19.8111C12.9522 20.1375 12.4844 20.3184 11.9992 20.3184C11.514 20.3184 11.0462 20.1375 10.6872 19.8111C10.3282 19.4846 10.1039 19.036 10.058 18.553C10.0304 18.2408 9.92804 17.9399 9.75951 17.6757C9.59098 17.4115 9.36127 17.1918 9.08982 17.0352C8.81837 16.8786 8.51318 16.7898 8.2001 16.7762C7.88703 16.7626 7.57529 16.8247 7.29129 16.9571C6.85036 17.1573 6.35073 17.1863 5.88962 17.0384C5.42852 16.8905 5.03893 16.5763 4.79669 16.157C4.55445 15.7377 4.47688 15.2433 4.57909 14.77C4.68129 14.2966 4.95596 13.8783 5.34962 13.5963C5.60597 13.4164 5.81523 13.1774 5.9597 12.8996C6.10416 12.6217 6.17958 12.3132 6.17958 12C6.17958 11.6869 6.10416 11.3783 5.9597 11.1005C5.81523 10.8226 5.60597 10.5837 5.34962 10.4038C4.95651 10.1217 4.68233 9.70345 4.58037 9.23044C4.47842 8.75743 4.55596 8.2634 4.79794 7.84438C5.03992 7.42536 5.42905 7.11127 5.8897 6.96315C6.35035 6.81504 6.84961 6.84348 7.29046 7.04295C7.57442 7.17523 7.88607 7.23715 8.19904 7.22347C8.512 7.20979 8.81707 7.12091 9.0884 6.96435C9.35974 6.80779 9.58937 6.58817 9.75784 6.32407C9.92632 6.05997 10.0287 5.75916 10.0563 5.44712M14.4987 12.0005C14.4987 13.3812 13.3795 14.5005 11.9987 14.5005C10.618 14.5005 9.49874 13.3812 9.49874 12.0005C9.49874 10.6198 10.618 9.50053 11.9987 9.50053C13.3795 9.50053 14.4987 10.6198 14.4987 12.0005Z" stroke="#546171" stroke-width="1.5" stroke-linecap="round" stroke-linejoin="round"/>
</svg>
