<svg width="19" height="17" viewBox="0 0 19 17" fill="none" xmlns="http://www.w3.org/2000/svg">
<g clip-path="url(#clip0_652_354)">
<path d="M9.25 13C11.183 13 12.75 11.433 12.75 9.5C12.75 7.567 11.183 6 9.25 6C7.317 6 5.75 7.567 5.75 9.5C5.75 11.433 7.317 13 9.25 13Z" fill="#546171"/>
<mask id="mask0_652_354" style="mask-type:alpha" maskUnits="userSpaceOnUse" x="0" y="2" width="19" height="16">
<path d="M9.25 17C13.9444 17 17.75 13.866 17.75 10C17.75 6.13401 13.9444 3 9.25 3C4.55558 3 0.75 6.13401 0.75 10C0.75 13.866 4.55558 17 9.25 17Z" stroke="black" stroke-width="1.5" stroke-linejoin="round"/>
</mask>
<g mask="url(#mask0_652_354)">
<path d="M20.75 2H-2.25V9H20.75V2Z" fill="#546171"/>
</g>
<path d="M15.8554 12.4246L2.51288 0.333791C2.30945 0.149443 1.99509 0.164915 1.81074 0.368348L1.81074 0.368349C1.62639 0.571782 1.64186 0.88614 1.8453 1.07049L15.1878 13.1612C15.3913 13.3456 15.7056 13.3301 15.89 13.1267C16.0743 12.9233 16.0588 12.6089 15.8554 12.4246Z" fill="white"/>
<rect x="2.00781" y="1" width="19" height="1.5" rx="0.75" transform="rotate(42.1823 2.00781 1)" fill="#546171"/>
</g>
<defs>
<clipPath id="clip0_652_354">
<rect width="19" height="17" fill="white"/>
</clipPath>
</defs>
</svg>
