<svg width="19" height="17" viewBox="0 0 19 17" fill="none" xmlns="http://www.w3.org/2000/svg">
<path d="M9.25 13C11.183 13 12.75 11.433 12.75 9.5C12.75 7.567 11.183 6 9.25 6C7.317 6 5.75 7.567 5.75 9.5C5.75 11.433 7.317 13 9.25 13Z" fill="#546171"/>
<mask id="mask0_1017_878" style="mask-type:alpha" maskUnits="userSpaceOnUse" x="0" y="2" width="19" height="16">
<path d="M9.25 17C13.9444 17 17.75 13.866 17.75 10C17.75 6.13401 13.9444 3 9.25 3C4.55558 3 0.75 6.13401 0.75 10C0.75 13.866 4.55558 17 9.25 17Z" stroke="black" stroke-width="1.5" stroke-linejoin="round"/>
</mask>
<g mask="url(#mask0_1017_878)">
<path d="M20.75 2H-2.25V9H20.75V2Z" fill="#546171"/>
</g>
<mask id="path-4-inside-1_1017_878" fill="white">
<path d="M1.50419 1.55576C1.78233 1.24882 2.25663 1.22548 2.56357 1.50362L15.5313 13.2547C15.8382 13.5329 15.8616 14.0072 15.5834 14.3141V14.3141C15.3053 14.621 14.831 14.6444 14.524 14.3662L1.55633 2.61514C1.2494 2.337 1.22605 1.8627 1.50419 1.55576V1.55576Z"/>
</mask>
<path d="M1.50419 1.55576C1.78233 1.24882 2.25663 1.22548 2.56357 1.50362L15.5313 13.2547C15.8382 13.5329 15.8616 14.0072 15.5834 14.3141V14.3141C15.3053 14.621 14.831 14.6444 14.524 14.3662L1.55633 2.61514C1.2494 2.337 1.22605 1.8627 1.50419 1.55576V1.55576Z" fill="#546171"/>
<path d="M1.50419 1.55576C1.89359 1.12605 2.55761 1.09337 2.98732 1.48276L15.5104 12.831C15.9401 13.2204 15.9728 13.8844 15.5834 14.3141L15.5834 14.3141C15.7503 14.1299 15.6368 13.7552 15.3298 13.477L2.36212 1.72592C2.05519 1.44778 1.67108 1.3716 1.50419 1.55576L1.50419 1.55576ZM1.50419 1.55576M15.0798 14.8699L1.00057 2.11152L15.0798 14.8699M15.0798 14.8699M1.00057 2.11152L2.00781 1L1.00057 2.11152M1.00057 2.11152M16.087 13.7583L15.0798 14.8699L16.087 13.7583" fill="white" mask="url(#path-4-inside-1_1017_878)"/>
</svg>
