<svg width="52" height="48" viewBox="0 0 52 48" fill="#181600" xmlns="http://www.w3.org/2000/svg">
<path fill-rule="evenodd" clip-rule="evenodd" d="M25.7968 0C11.5513 0 0 9.11969 0 20.3772C0 27.6097 4.78406 33.9585 11.9686 37.5819L9.53815 46.656C9.49328 46.7893 9.48692 46.9326 9.5198 47.0694C9.55267 47.2062 9.62345 47.331 9.724 47.4294C9.8497 47.5603 10.0208 47.6381 10.2021 47.6468C10.3834 47.6555 10.5612 47.5945 10.6988 47.4761L21.1518 40.4151C22.6901 40.6387 24.2423 40.7525 25.7968 40.7557C40.0434 40.7557 51.5947 31.6348 51.5947 20.3724C51.5947 9.11011 40.0434 0 25.7968 0Z" fill="#040000"/>
</svg>
