<svg width="14" height="12" viewBox="0 0 14 12" fill="none" xmlns="http://www.w3.org/2000/svg">
<path d="M3.69647 2.925C4.65811 1.25939 5.13893 0.42658 5.77351 0.159825C6.28046 -0.0532751 6.85186 -0.0532751 7.35881 0.159825C7.99339 0.42658 8.47421 1.25939 9.43585 2.925L11.7662 6.96136C12.7279 8.62698 13.2087 9.45978 13.1224 10.1427C13.0535 10.6883 12.7678 11.1832 12.3298 11.5156C11.7815 11.9318 10.8198 11.9318 8.89656 11.9318H4.23576C2.31248 11.9318 1.35084 11.9318 0.802528 11.5156C0.364505 11.1832 0.0788051 10.6883 0.00988255 10.1427C-0.0763933 9.45978 0.404428 8.62698 1.36607 6.96136L3.69647 2.925Z" fill="#FF2A4B"/>
<rect x="5.9082" y="3.20404" width="1.3127" height="4.83824" rx="0.65635" fill="white"/>
<rect x="5.9082" y="8.98" width="1.3127" height="1.3127" rx="0.65635" fill="white"/>
</svg>
